<?xml version="1.0" standalone="no"?>
<!DOCTYPE svg PUBLIC "-//W3C//DTD SVG 1.1//EN" "http://www.w3.org/Graphics/SVG/1.1/DTD/svg11.dtd" >
<svg xmlns="http://www.w3.org/2000/svg">
    <defs>
        <font id="Calibri-Bold">
            <font-face font-family="Calibri-Bold"
                       units-per-em="2048"
                       ascent="1536"
                       descent="-512"
                       bbox="-1009 -397 2538 1950"
                    />
            <missing-glyph horiz-adv-x="0" />
            
            <glyph glyph-name="!" unicode="&#x21;" horiz-adv-x="512" d=" M481,424 Q480,414 475,406 Q470,398 457.5,392.5 Q445,387 423.5,384 Q402,381 371,381 Q339,381 318,384 Q297,387 284.5,392.5 Q272,398 267,406 Q262,414 261,424 L235,1332 Q235,1345 241,1355 Q247,1365 262.5,1371.5 Q278,1378 304.5,1381 Q331,1384 371,1384 Q411,1384 437,1380.5 Q463,1377 478.5,1370.5 Q494,1364 500.5,1354.5 Q507,1345 507,1332 M512,131 Q512,90 505.5,62 Q499,34 482.5,17 Q466,0 439,-7.5 Q412,-15 371,-15 Q330,-15 302.5,-7.5 Q275,0 259,17 Q243,34 236.5,62 Q230,90 230,131 Q230,173 236.5,201.5 Q243,230 259,247.5 Q275,265 302.5,272.5 Q330,280 371,280 Q412,280 439,272.5 Q466,265 482.5,247.5 Q499,230 505.5,201.5 Q512,173 512,131"/> 
            <glyph glyph-name="&quot;" unicode="&#x22;" horiz-adv-x="730" d=" M707,910 Q707,900 702.5,892 Q698,884 687.5,879 Q677,874 660,871 Q643,868 617,868 Q590,868 572.5,871 Q555,874 545,879 Q535,884 530.5,892 Q526,900 526,910 L502,1357 Q502,1367 508,1375 Q514,1383 527.5,1388.5 Q541,1394 563,1396.5 Q585,1399 617,1399 Q649,1399 671,1396.5 Q693,1394 706.5,1388.5 Q720,1383 725,1375 Q730,1367 730,1357 M326,910 Q326,900 321.5,892 Q317,884 307,879 Q297,874 279.5,871 Q262,868 236,868 Q209,868 192,871 Q175,874 164.5,879 Q154,884 150,892 Q146,900 145,910 L122,1357 Q121,1367 127,1375 Q133,1383 146.5,1388.5 Q160,1394 182,1396.5 Q204,1399 236,1399 Q301,1399 325.5,1388.5 Q350,1378 350,1357"/> 
            <glyph glyph-name="#" unicode="&#x23;" horiz-adv-x="991" d=" M991,886 Q991,862 988,845.5 Q985,829 980,819 Q975,809 967.5,804.5 Q960,800 952,800 L838,800 L804,515 L902,515 Q919,515 929.5,495.5 Q940,476 940,430 Q940,406 937,389 Q934,372 929,362 Q924,352 916.5,347.5 Q909,343 901,343 L782,343 L745,30 Q744,21 739.5,14.5 Q735,8 723.5,3 Q712,-2 692.5,-4 Q673,-6 643,-6 Q611,-6 591.5,-4 Q572,-2 562,3 Q552,8 548.5,14.5 Q545,21 546,30 L584,343 L360,343 L323,30 Q322,22 317.5,15 Q313,8 302,3 Q291,-2 271.5,-4 Q252,-6 220,-6 Q189,-6 170,-4 Q151,-2 140.5,3 Q130,8 126.5,14.5 Q123,21 125,30 L161,343 L66,343 Q49,343 38.5,362 Q28,381 28,428 Q28,452 31,469 Q34,486 39,496 Q44,506 51,510.5 Q58,515 67,515 L183,515 L217,800 L116,800 Q99,800 88.5,819 Q78,838 78,885 Q78,933 89,952 Q100,971 117,971 L237,971 L273,1263 Q273,1272 278,1278.5 Q283,1285 295,1290 Q307,1295 327,1297.5 Q347,1300 378,1300 Q409,1300 428,1297.5 Q447,1295 457,1290 Q467,1285 469.5,1278.5 Q472,1272 472,1264 L435,971 L659,971 L693,1263 Q694,1271 699,1278 Q704,1285 715.5,1290 Q727,1295 747,1297.5 Q767,1300 799,1300 Q830,1300 849,1297.5 Q868,1295 878,1290 Q888,1285 890.5,1278.5 Q893,1272 892,1264 L857,971 L953,971 Q970,971 980.5,951.5 Q991,932 991,886 M415,800 L381,515 L604,515 L639,800"/> 
            <glyph glyph-name="$" unicode="&#x24;" horiz-adv-x="951" d=" M951,393 Q951,307 920.5,238 Q890,169 834,119 Q778,69 699,39 Q620,9 524,1 L503,-213 Q502,-221 498.5,-227 Q495,-233 485.5,-237 Q476,-241 459.5,-243.5 Q443,-246 418,-246 Q386,-246 366.5,-243 Q347,-240 336,-234.5 Q325,-229 321.5,-220 Q318,-211 320,-200 L341,3 Q298,9 260,18.5 Q222,28 191,39.5 Q160,51 137.5,63 Q115,75 103.5,86.5 Q92,98 87,120.5 Q82,143 82,187 Q82,221 84,243 Q86,265 91,277 Q96,289 103.5,293.5 Q111,298 121,298 Q134,298 159,283 Q184,268 223,250 Q262,232 317.5,217 Q373,202 448,202 Q565,202 622,245.5 Q679,289 679,361 Q679,409 654.5,440 Q630,471 589,494.5 Q548,518 496.5,536.5 Q445,555 391,576 Q337,597 285.5,625 Q234,653 193,694 Q152,735 127.5,793.5 Q103,852 103,935 Q103,1010 128,1071.5 Q153,1133 200,1179 Q247,1225 315.5,1253.5 Q384,1282 471,1292 L491,1493 Q492,1501 495.5,1506.5 Q499,1512 508.5,1516.5 Q518,1521 534,1523 Q550,1525 576,1525 Q607,1525 627.5,1522 Q648,1519 659,1513.5 Q670,1508 673,1499 Q676,1490 676,1479 L656,1290 Q684,1286 715,1279 Q746,1272 773,1262.5 Q800,1253 822,1242.5 Q844,1232 852.5,1223.5 Q861,1215 865.5,1206.5 Q870,1198 872.5,1185.5 Q875,1173 876,1155.5 Q877,1138 877,1115 Q877,1084 875.5,1064 Q874,1044 870,1033.5 Q866,1023 861,1019.5 Q856,1016 849,1016 Q836,1016 811,1029 Q786,1042 749.5,1057 Q713,1072 665.5,1085 Q618,1098 561,1098 Q509,1098 472,1088 Q435,1078 412,1060 Q389,1042 378,1017 Q367,992 367,962 Q367,915 392,883 Q417,851 458.5,828 Q500,805 552.5,786 Q605,767 659.5,746 Q714,725 766.5,697.5 Q819,670 860,629.5 Q901,589 926,531.5 Q951,474 951,393"/> 
            <glyph glyph-name="%" unicode="&#x25;" horiz-adv-x="1436" d=" M656,976 Q656,897 638.5,833.5 Q621,770 584,725 Q547,680 489.5,655 Q432,630 352,630 Q267,630 210,655 Q153,680 119,724.5 Q85,769 71,831 Q57,893 57,968 Q57,1043 74,1105.5 Q91,1168 127.5,1214 Q164,1260 221.5,1285.5 Q279,1311 360,1311 Q449,1311 506.5,1284 Q564,1257 597,1211 Q630,1165 643,1104 Q656,1043 656,976 M458,969 Q458,1024 452,1062.5 Q446,1101 434,1125 Q422,1149 402,1160 Q382,1171 355,1171 Q330,1171 311,1160.5 Q292,1150 279.5,1126.5 Q267,1103 261,1065.5 Q255,1028 255,974 Q255,912 262,872.5 Q269,833 282,810.5 Q295,788 314,779.5 Q333,771 358,771 Q387,771 406,782.5 Q425,794 436.5,818 Q448,842 453,879.5 Q458,917 458,969 M1436,329 Q1436,250 1418.5,186.5 Q1401,123 1364,78 Q1327,33 1269.5,8 Q1212,-17 1132,-17 Q1047,-17 990,8 Q933,33 899,77.5 Q865,122 851,184 Q837,246 837,321 Q837,396 854,458.5 Q871,521 907.5,567 Q944,613 1001.5,638.5 Q1059,664 1140,664 Q1229,664 1286.5,637 Q1344,610 1377,564 Q1410,518 1423,457 Q1436,396 1436,329 M1238,322 Q1238,377 1232,415.5 Q1226,454 1214,478 Q1202,502 1182,513 Q1162,524 1135,524 Q1110,524 1091,513.5 Q1072,503 1059.5,479.5 Q1047,456 1041,418.5 Q1035,381 1035,327 Q1035,265 1042,225.5 Q1049,186 1062,163.5 Q1075,141 1094,132.5 Q1113,124 1138,124 Q1167,124 1186,135.5 Q1205,147 1216.5,171 Q1228,195 1233,232.5 Q1238,270 1238,322 M383,7 Q374,-5 364.5,-12.5 Q355,-20 341,-25 Q327,-30 307,-32 Q287,-34 258,-34 Q225,-34 205.5,-30 Q186,-26 177.5,-18 Q169,-10 170.5,0.5 Q172,11 183,26 L1105,1289 Q1114,1300 1123,1308 Q1132,1316 1146.5,1321 Q1161,1326 1181,1328 Q1201,1330 1230,1330 Q1263,1330 1282.5,1326 Q1302,1322 1310.5,1314 Q1319,1306 1317,1295 Q1315,1284 1305,1270"/> 
            <glyph glyph-name="&amp;" unicode="&#x26;" horiz-adv-x="1370" d=" M82,361 Q82,417 98.5,466.5 Q115,516 148,560 Q181,604 229.5,644 Q278,684 342,722 Q306,768 279.5,808.5 Q253,849 235.5,886 Q218,923 209.5,956.5 Q201,990 201,1023 Q201,1093 226,1154.5 Q251,1216 304,1261 Q357,1306 439,1332.5 Q521,1359 636,1359 Q741,1359 817,1339 Q893,1319 942,1282.5 Q991,1246 1015,1192.5 Q1039,1139 1039,1072 Q1039,1012 1018.5,961 Q998,910 956.5,864 Q915,818 853,775.5 Q791,733 708,690 Q735,659 768.5,624.5 Q802,590 837.5,555.5 Q873,521 909,487 Q945,453 979,424 Q992,444 1002.5,470 Q1013,496 1020.5,525 Q1028,554 1032.5,584 Q1037,614 1037,643 L1037,674 Q1037,685 1041,693 Q1045,701 1057.5,706 Q1070,711 1093.5,713.5 Q1117,716 1154,716 Q1189,716 1212,714.5 Q1235,713 1248.5,708 Q1262,703 1267.5,694.5 Q1273,686 1273,673 L1273,641 Q1273,593 1266,544 Q1259,495 1245.5,448.5 Q1232,402 1212,359.5 Q1192,317 1168,280 Q1203,253 1228.5,235 Q1254,217 1272,206.5 Q1290,196 1302,192 Q1314,188 1322,188 Q1333,188 1342.5,188 Q1352,188 1358,181 Q1364,174 1367,156 Q1370,138 1370,103 Q1370,66 1368.5,45 Q1367,24 1363.5,14 Q1360,4 1351.5,-2.5 Q1343,-9 1323,-14.5 Q1303,-20 1275,-20 Q1253,-20 1229.5,-14.5 Q1206,-9 1175,6.5 Q1144,22 1103,47.5 Q1062,73 1008,113 Q961,81 911,55.5 Q861,30 806.5,13 Q752,-4 694,-13 Q636,-22 570,-22 Q505,-22 443,-12 Q381,-2 326.5,18.5 Q272,39 227,70 Q182,101 150,143.5 Q118,186 100,240.5 Q82,295 82,361 M466,1036 Q466,1015 473,992.5 Q480,970 492.5,945.5 Q505,921 524,893.5 Q543,866 567,834 Q626,866 665.5,893 Q705,920 729,945.5 Q753,971 763,996.5 Q773,1022 773,1049 Q773,1073 764,1094 Q755,1115 736,1130.5 Q717,1146 689,1155 Q661,1164 623,1164 Q581,1164 551.5,1154.5 Q522,1145 503,1127.5 Q484,1110 475,1086.5 Q466,1063 466,1036 M354,375 Q354,332 370,296 Q386,260 416,234 Q446,208 490.5,193.5 Q535,179 593,179 Q623,179 652.5,184.5 Q682,190 710.5,199.5 Q739,209 764.5,222.5 Q790,236 812,252 Q767,288 721.5,328.5 Q676,369 633,410 Q590,451 550.5,491.5 Q511,532 480,568 Q445,546 421.5,522.5 Q398,499 383,475 Q368,451 361,426 Q354,401 354,375 M0,1294"/> 
            <glyph glyph-name="'" unicode="&#x27;" horiz-adv-x="356" d=" M332,910 Q332,899 327,891 Q322,883 311,878 Q300,873 282.5,870.5 Q265,868 239,868 Q212,868 194.5,871 Q177,874 166,879 Q155,884 150.5,892 Q146,900 145,910 L122,1357 Q121,1367 127.5,1375 Q134,1383 148,1388.5 Q162,1394 184.5,1396.5 Q207,1399 239,1399 Q272,1399 294,1396.5 Q316,1394 330,1389 Q344,1384 350,1376 Q356,1368 355,1357"/> 
            <glyph glyph-name="(" unicode="&#x28;" horiz-adv-x="540" d=" M535,1368 Q451,1173 408,965.5 Q365,758 365,540 Q365,321 408.5,114.5 Q452,-92 534,-290 Q540,-306 540,-317.5 Q540,-329 529,-337 Q518,-345 495.5,-349 Q473,-353 433,-353 Q405,-353 385,-351 Q365,-349 351.5,-345.5 Q338,-342 330.5,-336.5 Q323,-331 320,-324 Q266,-220 226,-114.5 Q186,-9 159.5,98.5 Q133,206 120,315.5 Q107,425 107,538 Q107,650 120.5,759.5 Q134,869 161,976.5 Q188,1084 227.5,1190 Q267,1296 320,1401 Q322,1406 328,1410 Q334,1414 346,1417.5 Q358,1421 378.5,1422.5 Q399,1424 431,1424 Q467,1424 490,1420.5 Q513,1417 525,1410 Q537,1403 538.5,1392 Q540,1381 535,1368"/> 
            <glyph glyph-name=")" unicode="&#x29;" horiz-adv-x="530" d=" M530,538 Q530,425 517,315.5 Q504,206 477.5,98.5 Q451,-9 411.5,-114.5 Q372,-220 318,-324 Q315,-331 307.5,-336.5 Q300,-342 286.5,-345.5 Q273,-349 253,-351 Q233,-353 205,-353 Q164,-353 141.5,-349 Q119,-345 108,-337 Q97,-329 97,-317.5 Q97,-306 103,-290 Q186,-94 229.5,113.5 Q273,321 273,540 Q273,758 230,965.5 Q187,1173 102,1368 Q97,1381 98.5,1392 Q100,1403 112.5,1410 Q125,1417 147.5,1420.5 Q170,1424 207,1424 Q238,1424 258,1422.5 Q278,1421 291,1417.5 Q304,1414 309.5,1410 Q315,1406 318,1401 Q422,1191 476,976.5 Q530,762 530,538"/> 
            <glyph glyph-name="*" unicode="&#x2A;" horiz-adv-x="879" d=" M859,939 Q879,932 877.5,908 Q876,884 847,834 Q818,784 798,771.5 Q778,759 762,772 L563,931 L603,680 Q608,659 586,648 Q564,637 506,637 Q448,637 426,648 Q404,659 409,680 L449,931 L250,772 Q235,759 215,772 Q195,785 165,835 Q136,884 135,908 Q134,932 153,939 L391,1031 L153,1123 Q134,1130 135,1154 Q136,1178 165,1228 Q194,1278 214.5,1291 Q235,1304 250,1290 L449,1131 L409,1382 Q404,1402 426,1413.5 Q448,1425 506,1425 Q564,1425 586,1413.5 Q608,1402 603,1382 L563,1131 L762,1290 Q778,1304 797.5,1290.5 Q817,1277 847,1227 Q876,1178 877.5,1154 Q879,1130 859,1123 L622,1031"/> 
            <glyph glyph-name="+" unicode="&#x2B;" horiz-adv-x="968" d=" M968,575 Q968,547 965,528 Q962,509 956,497.5 Q950,486 942,481 Q934,476 925,476 L614,476 L614,137 Q614,127 609,119.5 Q604,112 592,106.5 Q580,101 560,98 Q540,95 510,95 Q480,95 460,98 Q440,101 428,106.5 Q416,112 410.5,119.5 Q405,127 405,137 L405,476 L95,476 Q86,476 78.5,481 Q71,486 65,497.5 Q59,509 55.5,528 Q52,547 52,575 Q52,602 55,621.5 Q58,641 63.5,652.5 Q69,664 76,669 Q83,674 92,674 L405,674 L405,1012 Q405,1022 410.5,1030.5 Q416,1039 428,1044.5 Q440,1050 460,1053 Q480,1056 510,1056 Q540,1056 560,1053 Q580,1050 592,1044.5 Q604,1039 609,1030.5 Q614,1022 614,1012 L614,674 L928,674 Q936,674 943.5,669 Q951,664 956.5,652.5 Q962,641 965,621.5 Q968,602 968,575"/> 
            <glyph glyph-name="," unicode="&#x2C;" horiz-adv-x="422" d=" M422,184 Q422,144 418,111.5 Q414,79 405,50 Q396,21 382,-6.5 Q368,-34 347,-63 L213,-255 Q206,-265 197.5,-272 Q189,-279 177,-283 Q165,-287 148,-289.5 Q131,-292 105,-292 Q76,-292 58,-289.5 Q40,-287 32,-282 Q24,-277 23.5,-269 Q23,-261 28,-250 L150,26 L150,184 Q150,218 158,239 Q166,260 183,271 Q200,282 226,285.5 Q252,289 289,289 Q324,289 349,285.5 Q374,282 390.5,271 Q407,260 414.5,239 Q422,218 422,184"/> 
            <glyph glyph-name="-" unicode="&#x2D;" horiz-adv-x="568" d=" M568,503 Q568,445 557,422 Q546,399 522,399 L106,399 Q81,399 70,422.5 Q59,446 59,503 Q59,559 70,582 Q81,605 106,605 L522,605 Q534,605 542.5,600 Q551,595 557,583 Q563,571 565.5,551 Q568,531 568,503"/> 
            <glyph glyph-name="." unicode="&#x2E;" horiz-adv-x="422" d=" M422,144 Q422,51 389.5,19 Q357,-13 273,-13 Q189,-13 157,18.5 Q125,50 125,138 Q125,232 157.5,264 Q190,296 275,296 Q358,296 390,264.5 Q422,233 422,144"/> 
            <glyph glyph-name="/" unicode="&#x2F;" horiz-adv-x="854" d=" M252,-259 Q247,-272 239,-280 Q231,-288 216.5,-293 Q202,-298 180.5,-300.5 Q159,-303 126,-303 Q85,-303 59,-299 Q33,-295 19.5,-287 Q6,-279 4,-266.5 Q2,-254 8,-237 L606,1442 Q610,1455 618,1463.5 Q626,1472 640,1477 Q654,1482 676.5,1484.5 Q699,1487 731,1487 Q773,1487 798.5,1483 Q824,1479 837,1471 Q850,1463 852,1450.5 Q854,1438 849,1421"/> 
            <glyph glyph-name="0" unicode="&#x30;" horiz-adv-x="982" d=" M982,652 Q982,497 957,372 Q932,247 875.5,159 Q819,71 728.5,24 Q638,-23 507,-23 Q374,-23 287,22.5 Q200,68 149,153.5 Q98,239 77.5,362.5 Q57,486 57,642 Q57,796 82.5,921.5 Q108,1047 164.5,1135 Q221,1223 311.5,1270 Q402,1317 532,1317 Q665,1317 752.5,1271.5 Q840,1226 891,1140.5 Q942,1055 962,931.5 Q982,808 982,652 M717,639 Q717,731 712,801.5 Q707,872 696.5,924 Q686,976 670.5,1012 Q655,1048 633,1069.5 Q611,1091 583,1100 Q555,1109 521,1109 Q462,1109 423.5,1080.5 Q385,1052 362.5,995 Q340,938 331,853 Q322,768 322,655 Q322,517 333,426.5 Q344,336 367.5,282.5 Q391,229 428,207.5 Q465,186 517,186 Q556,186 586,198.5 Q616,211 638.5,236 Q661,261 676,299 Q691,337 700.5,387 Q710,437 713.5,500 Q717,563 717,639"/> 
            <glyph glyph-name="1" unicode="&#x31;" horiz-adv-x="944" d=" M944,100 Q944,72 941,52.5 Q938,33 932.5,21.5 Q927,10 920,5 Q913,0 904,0 L190,0 Q182,0 175,5 Q168,10 162.5,21.5 Q157,33 154,52.5 Q151,72 151,100 Q151,129 153.5,148.5 Q156,168 161.5,180 Q167,192 174,197.5 Q181,203 190,203 L431,203 L431,1045 L223,930 Q200,919 185.5,916.5 Q171,914 162.5,922.5 Q154,931 151,952 Q148,973 148,1011 Q148,1035 149,1050.5 Q150,1066 154,1077 Q158,1088 165,1095 Q172,1102 184,1110 L462,1290 Q467,1294 474.5,1296.5 Q482,1299 494,1300.5 Q506,1302 525.5,1302.5 Q545,1303 576,1303 Q614,1303 637.5,1301.5 Q661,1300 673,1296.5 Q685,1293 689,1287 Q693,1281 693,1272 L693,203 L904,203 Q913,203 920.5,197.5 Q928,192 933.5,180 Q939,168 941.5,148.5 Q944,129 944,100"/> 
            <glyph glyph-name="2" unicode="&#x32;" horiz-adv-x="956" d=" M956,107 Q956,78 953.5,57.5 Q951,37 946,24 Q941,11 933,5.5 Q925,0 915,0 L171,0 Q149,0 133,4 Q117,8 107,19.5 Q97,31 92.5,53 Q88,75 88,110 Q88,143 91,166.5 Q94,190 102,208.5 Q110,227 122.5,244.5 Q135,262 155,283 L379,523 Q446,593 487,650.5 Q528,708 551,755.5 Q574,803 582.5,843 Q591,883 591,919 Q591,952 580.5,981.5 Q570,1011 549.5,1033 Q529,1055 498,1067.5 Q467,1080 425,1080 Q366,1080 320.5,1065 Q275,1050 240.5,1031.5 Q206,1013 183,997.5 Q160,982 147,982 Q138,982 131.5,988 Q125,994 121,1008 Q117,1022 114.5,1045.5 Q112,1069 112,1103 Q112,1126 113.5,1141.5 Q115,1157 118,1168.5 Q121,1180 126,1188.5 Q131,1197 143.5,1209 Q156,1221 189.5,1239.5 Q223,1258 272,1275.5 Q321,1293 380,1305 Q439,1317 503,1317 Q604,1317 679.5,1291.5 Q755,1266 805,1220.5 Q855,1175 879.5,1112.5 Q904,1050 904,978 Q904,915 892,854 Q880,793 842,722.5 Q804,652 735,566.5 Q666,481 552,368 L401,213 L911,213 Q921,213 929.5,207 Q938,201 944,188.5 Q950,176 953,155.5 Q956,135 956,107"/> 
            <glyph glyph-name="3" unicode="&#x33;" horiz-adv-x="950" d=" M950,379 Q950,282 913,207 Q876,132 810,81 Q744,30 652,3.5 Q560,-23 451,-23 Q385,-23 327,-13.5 Q269,-4 224.5,10 Q180,24 151,39 Q122,54 113,62 Q104,70 99.5,80 Q95,90 91.5,103.5 Q88,117 86.5,137.5 Q85,158 85,187 Q85,235 93,253.5 Q101,272 117,272 Q127,272 151.5,258.5 Q176,245 214,229.5 Q252,214 303,200.5 Q354,187 419,187 Q474,187 516,200 Q558,213 587.5,236.5 Q617,260 631.5,293.5 Q646,327 646,368 Q646,413 628.5,449 Q611,485 576.5,510.5 Q542,536 489.5,550 Q437,564 366,564 L254,564 Q241,564 232,567.5 Q223,571 217,582 Q211,593 208.5,612.5 Q206,632 206,663 Q206,692 208.5,710.5 Q211,729 216.5,739 Q222,749 230.5,753 Q239,757 251,757 L364,757 Q422,757 467,770.5 Q512,784 542.5,809 Q573,834 589,869.5 Q605,905 605,948 Q605,981 594,1010.5 Q583,1040 561.5,1061.5 Q540,1083 506,1095.5 Q472,1108 426,1108 Q374,1108 328,1092.5 Q282,1077 245.5,1058.5 Q209,1040 183.5,1024 Q158,1008 146,1008 Q138,1008 132,1011.5 Q126,1015 122,1025 Q118,1035 116,1054 Q114,1073 114,1103 Q114,1128 115,1144.5 Q116,1161 119,1172 Q122,1183 126.5,1191 Q131,1199 141,1208.5 Q151,1218 182,1237 Q213,1256 260,1274 Q307,1292 368.5,1304.5 Q430,1317 502,1317 Q596,1317 668.5,1295 Q741,1273 790.5,1231.5 Q840,1190 865.5,1129.5 Q891,1069 891,993 Q891,934 876,883 Q861,832 832,792 Q803,752 759.5,724 Q716,696 659,682 L659,679 Q727,671 781,644.5 Q835,618 872.5,578 Q910,538 930,487.5 Q950,437 950,379"/> 
            <glyph glyph-name="4" unicode="&#x34;" horiz-adv-x="996" d=" M996,372 Q996,321 985.5,294.5 Q975,268 957,268 L842,268 L842,34 Q842,24 836,16.5 Q830,9 815,4 Q800,-1 776,-3.5 Q752,-6 714,-6 Q678,-6 653.5,-3.5 Q629,-1 614.5,4 Q600,9 594.5,16.5 Q589,24 589,34 L589,268 L94,268 Q80,268 69,271.5 Q58,275 50.5,287.5 Q43,300 39.5,323.5 Q36,347 36,386 Q36,418 37.5,441.5 Q39,465 42.5,484 Q46,503 52.5,520 Q59,537 69,556 L471,1265 Q476,1274 488,1280.5 Q500,1287 521.5,1291.5 Q543,1296 576,1298 Q609,1300 656,1300 Q707,1300 743,1297.5 Q779,1295 800.5,1289.5 Q822,1284 832,1276 Q842,1268 842,1257 L842,478 L957,478 Q973,478 984.5,453.5 Q996,429 996,372 M589,1073 L587,1073 L246,478 L589,478"/> 
            <glyph glyph-name="5" unicode="&#x35;" horiz-adv-x="944" d=" M944,420 Q944,315 907.5,232.5 Q871,150 804.5,93.5 Q738,37 644.5,7 Q551,-23 437,-23 Q377,-23 323,-15.5 Q269,-8 226,3.5 Q183,15 155.5,26.5 Q128,38 119.5,45.5 Q111,53 107,62 Q103,71 100.5,83.5 Q98,96 97,115 Q96,134 96,160 Q96,188 98,207.5 Q100,227 104.5,239 Q109,251 115,256 Q121,261 129,261 Q139,261 159.5,249.5 Q180,238 213.5,224 Q247,210 295,198.5 Q343,187 410,187 Q468,187 515.5,199 Q563,211 596,237.5 Q629,264 647,304 Q665,344 665,400 Q665,448 650,485.5 Q635,523 603,549 Q571,575 520,588 Q469,601 396,601 Q338,601 290.5,595 Q243,589 201,589 Q172,589 159.5,603.5 Q147,618 147,657 L147,1219 Q147,1259 162.5,1276.5 Q178,1294 212,1294 L825,1294 Q834,1294 842,1288 Q850,1282 855.5,1269 Q861,1256 863.5,1234.5 Q866,1213 866,1183 Q866,1123 855.5,1096 Q845,1069 825,1069 L365,1069 L365,792 Q400,796 434.5,797 Q469,798 507,798 Q612,798 693.5,773.5 Q775,749 830.5,701.5 Q886,654 915,583.5 Q944,513 944,420"/> 
            <glyph glyph-name="6" unicode="&#x36;" horiz-adv-x="976" d=" M976,432 Q976,334 946,250.5 Q916,167 858,106.5 Q800,46 715,11.5 Q630,-23 519,-23 Q429,-23 362,-2.5 Q295,18 246,56.5 Q197,95 166,150 Q135,205 116.5,274 Q98,343 91,424 Q84,505 84,596 Q84,672 91.5,755 Q99,838 120.5,918 Q142,998 181,1070.5 Q220,1143 281.5,1197.5 Q343,1252 430.5,1284 Q518,1316 638,1316 Q676,1316 714.5,1311.5 Q753,1307 786,1300 Q819,1293 842,1284 Q865,1275 872.5,1268.5 Q880,1262 884,1254 Q888,1246 890.5,1236.5 Q893,1227 894,1213 Q895,1199 895,1179 Q895,1148 893.5,1127.5 Q892,1107 888,1095.5 Q884,1084 877,1079 Q870,1074 860,1074 Q848,1074 829,1080.5 Q810,1087 783,1095 Q756,1103 719.5,1109 Q683,1115 635,1115 Q554,1115 498,1085 Q442,1055 407,1003.5 Q372,952 356,884 Q340,816 339,740 Q361,754 389.5,768 Q418,782 451.5,792 Q485,802 524,808.5 Q563,815 607,815 Q705,815 775,788 Q845,761 889.5,711 Q934,661 955,590 Q976,519 976,432 M718,407 Q718,458 709,496.5 Q700,535 680,561.5 Q660,588 627,601.5 Q594,615 547,615 Q519,615 492,610 Q465,605 439,596 Q413,587 389,574.5 Q365,562 344,548 Q344,441 356,369.5 Q368,298 391.5,256 Q415,214 450.5,196.5 Q486,179 533,179 Q579,179 613.5,196 Q648,213 671,244 Q694,275 706,316.5 Q718,358 718,407"/> 
            <glyph glyph-name="7" unicode="&#x37;" horiz-adv-x="955" d=" M955,1183 Q955,1154 953,1132.5 Q951,1111 947.5,1092.5 Q944,1074 938,1057.5 Q932,1041 924,1022 L498,35 Q492,22 482.5,14 Q473,6 456,1.5 Q439,-3 412.5,-4.5 Q386,-6 347,-6 Q294,-6 263,-2.5 Q232,1 217.5,8.5 Q203,16 202,27.5 Q201,39 209,56 L667,1066 L123,1066 Q102,1066 91.5,1093.5 Q81,1121 81,1181 Q81,1211 84,1232.5 Q87,1254 92.5,1268 Q98,1282 105.5,1288 Q113,1294 123,1294 L892,1294 Q910,1294 922,1290.5 Q934,1287 941,1275 Q948,1263 951.5,1241 Q955,1219 955,1183"/> 
            <glyph glyph-name="8" unicode="&#x38;" horiz-adv-x="976" d=" M976,347 Q976,259 945.5,190 Q915,121 855.5,73.5 Q796,26 708,1.5 Q620,-23 505,-23 Q395,-23 312,-1 Q229,21 173,63.5 Q117,106 89,168.5 Q61,231 61,312 Q61,367 77.5,415.5 Q94,464 126.5,505.5 Q159,547 207.5,583.5 Q256,620 319,653 Q268,681 227,713.5 Q186,746 157,784.5 Q128,823 113,869 Q98,915 98,969 Q98,1047 125.5,1110.5 Q153,1174 207.5,1220.5 Q262,1267 344,1292 Q426,1317 534,1317 Q641,1317 717.5,1294 Q794,1271 843,1229 Q892,1187 915.5,1128.5 Q939,1070 939,999 Q939,952 923.5,907.5 Q908,863 880,823 Q852,783 811,747.5 Q770,712 718,683 Q779,651 827,615 Q875,579 908,537.5 Q941,496 958.5,449 Q976,402 976,347 M686,975 Q686,1010 676,1038 Q666,1066 644.5,1085.5 Q623,1105 591.5,1115 Q560,1125 517,1125 Q433,1125 392,1086.5 Q351,1048 351,980 Q351,948 361.5,921 Q372,894 394,870 Q416,846 451,823 Q486,800 534,774 Q607,817 646.5,866 Q686,915 686,975 M716,329 Q716,366 703.5,396.5 Q691,427 664.5,454 Q638,481 598,506 Q558,531 505,557 Q459,532 424,507 Q389,482 366,454.5 Q343,427 331.5,396.5 Q320,366 320,331 Q320,253 370.5,212 Q421,171 521,171 Q619,171 667.5,213 Q716,255 716,329"/> 
            <glyph glyph-name="9" unicode="&#x39;" horiz-adv-x="959" d=" M959,706 Q959,627 951,542.5 Q943,458 920.5,377 Q898,296 858.5,223 Q819,150 756.5,95.5 Q694,41 604.5,9 Q515,-23 393,-23 Q350,-23 307.5,-17 Q265,-11 230,-2 Q195,7 170.5,17 Q146,27 135,37.5 Q124,48 119,68 Q114,88 114,124 Q114,157 115.5,177 Q117,197 121.5,208 Q126,219 132.5,222.5 Q139,226 148,226 Q160,226 182,219 Q204,212 235.5,203 Q267,194 307,187 Q347,180 396,180 Q480,180 538,210 Q596,240 632,291 Q668,342 685,409 Q702,476 704,550 Q658,521 593,499.5 Q528,478 444,478 Q341,478 269,505 Q197,532 152,583 Q107,634 86.5,707 Q66,780 66,872 Q66,969 95,1050.5 Q124,1132 181,1191.5 Q238,1251 323,1284 Q408,1317 520,1317 Q610,1317 677.5,1296 Q745,1275 793.5,1236 Q842,1197 874.5,1141.5 Q907,1086 925.5,1018 Q944,950 951.5,871 Q959,792 959,706 M698,742 Q698,849 686,921 Q674,993 650,1036 Q626,1079 590,1097 Q554,1115 506,1115 Q459,1115 425,1098.5 Q391,1082 368.5,1052 Q346,1022 335,981 Q324,940 324,891 Q324,838 333.5,797.5 Q343,757 363.5,730.5 Q384,704 417,691 Q450,678 497,678 Q555,678 606.5,695.5 Q658,713 698,742"/> 
            <glyph glyph-name=":" unicode="&#x3A;" horiz-adv-x="442" d=" M442,790 Q442,748 435,720 Q428,692 411.5,674 Q395,656 368,648.5 Q341,641 300,641 Q259,641 232,648.5 Q205,656 188.5,674 Q172,692 166,720 Q160,748 160,790 Q160,833 166,862 Q172,891 188.5,909 Q205,927 232,935 Q259,943 300,943 Q341,943 368,935 Q395,927 411.5,909 Q428,891 435,862 Q442,833 442,790 M442,137 Q442,95 435,66.5 Q428,38 411.5,20 Q395,2 368,-5.5 Q341,-13 300,-13 Q259,-13 232,-5.5 Q205,2 188.5,20 Q172,38 166,66.5 Q160,95 160,137 Q160,179 166,208.5 Q172,238 188.5,256 Q205,274 232,281.5 Q259,289 300,289 Q341,289 368,281.5 Q395,274 411.5,256 Q428,238 435,208.5 Q442,179 442,137"/> 
            <glyph glyph-name=";" unicode="&#x3B;" horiz-adv-x="442" d=" M442,790 Q442,748 435,720 Q428,692 411.5,674 Q395,656 368,648.5 Q341,641 300,641 Q259,641 232,648.5 Q205,656 188.5,674 Q172,692 166,720 Q160,748 160,790 Q160,833 166,862 Q172,891 188.5,909 Q205,927 232,935 Q259,943 300,943 Q341,943 368,935 Q395,927 411.5,909 Q428,891 435,862 Q442,833 442,790 M442,184 Q442,144 438,111.5 Q434,79 425.5,50 Q417,21 403,-6.5 Q389,-34 369,-63 L239,-251 Q232,-261 223.5,-268 Q215,-275 203,-279.5 Q191,-284 174.5,-286 Q158,-288 133,-288 Q105,-288 88,-286 Q71,-284 63,-278.5 Q55,-273 54.5,-265 Q54,-257 59,-246 L176,26 L176,184 Q176,218 184,239 Q192,260 208.5,271 Q225,282 251,285.5 Q277,289 312,289 Q346,289 370.5,285.5 Q395,282 411,271 Q427,260 434.5,239 Q442,218 442,184"/> 
            <glyph glyph-name="&lt;" unicode="&#x3C;" horiz-adv-x="915" d=" M915,174 Q915,137 912,116 Q909,95 902.5,86 Q896,77 886.5,78 Q877,79 862,86 L95,468 Q81,476 74.5,501.5 Q68,527 68,578 Q68,604 70,623.5 Q72,643 75,655.5 Q78,668 83.5,675.5 Q89,683 96,687 L862,1067 Q891,1081 903,1061.5 Q915,1042 915,982 Q915,941 913.5,917 Q912,893 908,879 Q904,865 897,859 Q890,853 878,847 L302,577 L867,315 Q882,308 891.5,301 Q901,294 906,279.5 Q911,265 913,240.5 Q915,216 915,174"/> 
            <glyph glyph-name="=" unicode="&#x3D;" horiz-adv-x="934" d=" M934,779 Q934,726 922.5,704 Q911,682 890,682 L127,682 Q106,682 94.5,704 Q83,726 83,779 Q83,830 93.5,852 Q104,874 127,874 L890,874 Q913,874 923.5,852 Q934,830 934,779 M934,375 Q934,321 922.5,300 Q911,279 890,279 L127,279 Q106,279 94.5,300 Q83,321 83,375 Q83,426 93.5,448.5 Q104,471 127,471 L890,471 Q913,471 923.5,448.5 Q934,426 934,375"/> 
            <glyph glyph-name="&gt;" unicode="&#x3E;" horiz-adv-x="950" d=" M950,575 Q950,549 948,530 Q946,511 942.5,498 Q939,485 933.5,477.5 Q928,470 921,467 L154,87 Q140,80 130,81 Q120,82 113.5,92 Q107,102 104.5,121.5 Q102,141 102,171 Q102,212 103.5,236 Q105,260 109,274 Q113,288 120,294.5 Q127,301 139,306 L715,576 L150,838 Q134,845 124.5,852 Q115,859 110,873.5 Q105,888 103.5,912.5 Q102,937 102,979 Q102,1016 104.5,1037 Q107,1058 113.5,1067 Q120,1076 130,1075 Q140,1074 154,1067 L922,684 Q935,678 942.5,652 Q950,626 950,575"/> 
            <glyph glyph-name="?" unicode="&#x3F;" horiz-adv-x="866" d=" M866,988 Q866,906 842.5,840 Q819,774 776.5,726 Q734,678 674.5,649 Q615,620 543,612 L535,417 Q534,399 506.5,390 Q479,381 427,381 Q394,381 371.5,382.5 Q349,384 336,388 Q323,392 317,399 Q311,406 310,417 L301,653 Q300,685 304,705 Q308,725 318.5,737 Q329,749 345,753.5 Q361,758 383,758 L397,758 Q450,758 488.5,775 Q527,792 552,820 Q577,848 588.5,886 Q600,924 600,967 Q600,1015 586.5,1055 Q573,1095 545.5,1124 Q518,1153 476.5,1168.5 Q435,1184 379,1184 Q328,1184 289,1174 Q250,1164 222,1152 Q194,1140 175.5,1130 Q157,1120 147,1120 Q140,1120 134,1124.5 Q128,1129 124,1141 Q120,1153 117.5,1175 Q115,1197 115,1231 Q115,1266 118,1282 Q121,1298 131,1308 Q141,1318 169,1331.5 Q197,1345 236,1356.5 Q275,1368 323,1376 Q371,1384 423,1384 Q541,1384 625,1351.5 Q709,1319 762.5,1264 Q816,1209 841,1138 Q866,1067 866,988 M570,131 Q570,90 563.5,62 Q557,34 540.5,17 Q524,0 496.5,-7.5 Q469,-15 429,-15 Q387,-15 360,-7.5 Q333,0 316.5,17 Q300,34 293.5,62 Q287,90 287,131 Q287,173 293.5,201.5 Q300,230 316.5,247.5 Q333,265 360,272.5 Q387,280 429,280 Q469,280 496.5,272.5 Q524,265 540.5,247.5 Q557,230 563.5,201.5 Q570,173 570,131"/> 
            <glyph glyph-name="@" unicode="&#x40;" horiz-adv-x="1711" d=" M1711,769 Q1711,696 1701,621.5 Q1691,547 1668.5,478.5 Q1646,410 1611,350 Q1576,290 1526.5,246 Q1477,202 1412,176.5 Q1347,151 1265,151 Q1216,151 1176,160.5 Q1136,170 1106,188.5 Q1076,207 1056.5,234.5 Q1037,262 1027,298 Q988,258 950.5,230.5 Q913,203 876.5,185 Q840,167 804,159 Q768,151 731,151 Q684,151 648,162.5 Q612,174 585.5,194 Q559,214 541.5,240.5 Q524,267 513,299 Q502,331 497.5,366 Q493,401 493,437 Q493,484 500.5,542 Q508,600 525.5,660.5 Q543,721 572,777.5 Q601,834 644,878.5 Q687,923 744.5,950 Q802,977 877,977 Q911,977 940,970 Q969,963 996,948 Q1023,933 1048.5,909 Q1074,885 1102,850 L1119,927 Q1123,945 1143.5,954 Q1164,963 1216,963 Q1242,963 1259.5,960.5 Q1277,958 1287,953.5 Q1297,949 1300,942.5 Q1303,936 1302,927 L1216,480 Q1202,406 1220.5,371.5 Q1239,337 1293,337 Q1328,337 1357,356 Q1386,375 1407.5,407.5 Q1429,440 1444,482.5 Q1459,525 1468.5,571.5 Q1478,618 1482.5,665.5 Q1487,713 1487,757 Q1487,837 1465,908.5 Q1443,980 1387.5,1034.5 Q1332,1089 1237.5,1120.5 Q1143,1152 997,1152 Q899,1152 818.5,1132.5 Q738,1113 674,1078.5 Q610,1044 560,997 Q510,950 473,894.5 Q436,839 410.5,776.5 Q385,714 370,650 Q355,586 348,522 Q341,458 341,398 Q341,289 365,203 Q389,117 448,57 Q507,-3 605.5,-34.5 Q704,-66 852,-66 Q929,-66 992.5,-57 Q1056,-48 1103.5,-38 Q1151,-28 1181,-19 Q1211,-10 1222,-10 Q1229,-10 1234,-13.5 Q1239,-17 1242,-27 Q1245,-37 1246.5,-54 Q1248,-71 1248,-97 Q1248,-119 1247,-134 Q1246,-149 1243.5,-159.5 Q1241,-170 1237,-177.5 Q1233,-185 1227,-190.5 Q1221,-196 1189.5,-207 Q1158,-218 1105.5,-228.5 Q1053,-239 982.5,-247 Q912,-255 828,-255 Q638,-255 504,-211.5 Q370,-168 284.5,-85.5 Q199,-3 159.5,114.5 Q120,232 120,379 Q120,461 131.5,546 Q143,631 167,714 Q191,797 229.5,875.5 Q268,954 321,1024 Q374,1094 443.5,1152.5 Q513,1211 599.5,1253 Q686,1295 790.5,1318 Q895,1341 1020,1341 Q1203,1341 1333.5,1300 Q1464,1259 1548,1184 Q1632,1109 1671.5,1003.5 Q1711,898 1711,769 M1039,680 Q1009,735 976.5,763 Q944,791 903,791 Q868,791 840.5,774.5 Q813,758 792,730.5 Q771,703 756.5,668.5 Q742,634 732.5,598 Q723,562 719,527.5 Q715,493 715,467 Q715,407 737,372 Q759,337 811,337 Q830,337 850.5,343.5 Q871,350 893.5,364.5 Q916,379 941.5,402.5 Q967,426 998,459 M0,1294"/> 
            <glyph glyph-name="A" unicode="&#x41;" horiz-adv-x="1219" d=" M1201,98 Q1213,62 1216,41 Q1219,20 1208,9.5 Q1197,-1 1169,-3.5 Q1141,-6 1092,-6 Q1041,-6 1012.5,-4.5 Q984,-3 969,1.5 Q954,6 948,14 Q942,22 938,35 L851,295 L365,295 L283,42 Q279,28 272.5,18.5 Q266,9 251.5,3.5 Q237,-2 210.5,-4 Q184,-6 141,-6 Q95,-6 69,-3 Q43,0 33,11.5 Q23,23 26,44 Q29,65 41,100 L440,1248 Q446,1265 454,1275.5 Q462,1286 479.5,1291.5 Q497,1297 528,1298.5 Q559,1300 610,1300 Q669,1300 704,1298.5 Q739,1297 758.5,1291.5 Q778,1286 786.5,1275 Q795,1264 801,1245 M607,1047 L606,1047 L423,497 L790,497"/> 
            <glyph glyph-name="B" unicode="&#x42;" horiz-adv-x="1078" d=" M1078,388 Q1078,319 1059,263 Q1040,207 1006.5,164 Q973,121 926.5,90 Q880,59 824,39 Q768,19 704.5,9.5 Q641,0 563,0 L219,0 Q186,0 163.5,19.5 Q141,39 141,83 L141,1211 Q141,1255 163.5,1274.5 Q186,1294 219,1294 L544,1294 Q663,1294 745.5,1274 Q828,1254 884.5,1213.5 Q941,1173 971,1111 Q1001,1049 1001,965 Q1001,918 989,876.5 Q977,835 954,801 Q931,767 897.5,741 Q864,715 821,699 Q876,689 922.5,664 Q969,639 1003.5,599.5 Q1038,560 1058,507 Q1078,454 1078,388 M738,933 Q738,972 726,1003 Q714,1034 690,1054.5 Q666,1075 629.5,1086 Q593,1097 532,1097 L399,1097 L399,761 L546,761 Q603,761 637,774.5 Q671,788 693.5,811.5 Q716,835 727,866.5 Q738,898 738,933 M805,379 Q805,424 790,459.5 Q775,495 746,519 Q717,543 672,556 Q627,569 555,569 L399,569 L399,201 L589,201 Q644,201 681.5,212.5 Q719,224 746.5,246.5 Q774,269 789.5,302.5 Q805,336 805,379"/> 
            <glyph glyph-name="C" unicode="&#x43;" horiz-adv-x="1036" d=" M1036,196 Q1036,171 1034.5,153.5 Q1033,136 1030,123.5 Q1027,111 1022,102 Q1017,93 1006,81.5 Q995,70 963.5,52 Q932,34 886.5,17.5 Q841,1 782.5,-10 Q724,-21 656,-21 Q523,-21 416,20 Q309,61 234,142.5 Q159,224 119,346 Q79,468 79,630 Q79,795 123,923 Q167,1051 246,1138 Q325,1225 435.5,1270 Q546,1315 679,1315 Q733,1315 783,1306 Q833,1297 875.5,1282.5 Q918,1268 952,1249 Q986,1230 999.5,1216.5 Q1013,1203 1018,1194 Q1023,1185 1026,1171 Q1029,1157 1030.5,1138 Q1032,1119 1032,1091 Q1032,1061 1030,1040 Q1028,1019 1023,1006 Q1018,993 1011,987 Q1004,981 995,981 Q980,981 957,998.5 Q934,1016 897.5,1037.5 Q861,1059 810.5,1076.5 Q760,1094 690,1094 Q613,1094 552.5,1062.5 Q492,1031 449.5,972.5 Q407,914 385,831 Q363,748 363,644 Q363,530 386.5,446.5 Q410,363 453.5,309 Q497,255 558.5,228.5 Q620,202 697,202 Q767,202 818,218.5 Q869,235 905.5,255 Q942,275 965.5,291 Q989,307 1002,307 Q1012,307 1018,303 Q1024,299 1028,287 Q1032,275 1034,253.5 Q1036,232 1036,196"/> 
            <glyph glyph-name="D" unicode="&#x44;" horiz-adv-x="1216" d=" M1216,666 Q1216,488 1169.5,361.5 Q1123,235 1036,155 Q949,75 824.5,37.5 Q700,0 528,0 L219,0 Q186,0 163.5,19.5 Q141,39 141,83 L141,1211 Q141,1255 163.5,1274.5 Q186,1294 219,1294 L551,1294 Q724,1294 844.5,1253.5 Q965,1213 1047.5,1133.5 Q1130,1054 1173,937 Q1216,820 1216,666 M944,657 Q944,749 922.5,828 Q901,907 853.5,965 Q806,1023 731.5,1055.5 Q657,1088 536,1088 L403,1088 L403,208 L540,208 Q648,208 722,236 Q796,264 845.5,320.5 Q895,377 919.5,461 Q944,545 944,657"/> 
            <glyph glyph-name="E" unicode="&#x45;" horiz-adv-x="908" d=" M908,103 Q908,74 905.5,54.5 Q903,35 898,23 Q893,11 885.5,5.5 Q878,0 869,0 L219,0 Q186,0 163.5,19.5 Q141,39 141,83 L141,1211 Q141,1255 163.5,1274.5 Q186,1294 219,1294 L865,1294 Q874,1294 881,1289 Q888,1284 893,1271.5 Q898,1259 900.5,1239.5 Q903,1220 903,1190 Q903,1162 900.5,1142.5 Q898,1123 893,1111 Q888,1099 881,1093.5 Q874,1088 865,1088 L403,1088 L403,772 L794,772 Q803,772 810.5,766.5 Q818,761 823,749.5 Q828,738 830.5,718.5 Q833,699 833,671 Q833,642 830.5,623 Q828,604 823,592.5 Q818,581 810.5,576 Q803,571 794,571 L403,571 L403,206 L869,206 Q878,206 885.5,200.5 Q893,195 898,183 Q903,171 905.5,151.5 Q908,132 908,103"/> 
            <glyph glyph-name="F" unicode="&#x46;" horiz-adv-x="867" d=" M867,1186 Q867,1156 864.5,1135.5 Q862,1115 856.5,1103 Q851,1091 844,1085 Q837,1079 828,1079 L405,1079 L405,731 L802,731 Q811,731 818,726 Q825,721 830.5,709 Q836,697 838.5,677 Q841,657 841,627 Q841,597 838.5,577 Q836,557 830.5,544 Q825,531 818,525.5 Q811,520 802,520 L405,520 L405,38 Q405,27 399,19 Q393,11 377.5,5.5 Q362,0 337,-3 Q312,-6 273,-6 Q235,-6 209.5,-3 Q184,0 169,5.5 Q154,11 147.5,19 Q141,27 141,38 L141,1211 Q141,1255 163.5,1274.5 Q186,1294 219,1294 L828,1294 Q837,1294 844,1288.5 Q851,1283 856.5,1270.5 Q862,1258 864.5,1237 Q867,1216 867,1186"/> 
            <glyph glyph-name="G" unicode="&#x47;" horiz-adv-x="1179" d=" M1179,1093 Q1179,1064 1176.5,1043 Q1174,1022 1169.5,1009.5 Q1165,997 1158.5,992 Q1152,987 1143,987 Q1130,987 1101,1005 Q1072,1023 1024,1044 Q976,1065 909.5,1083 Q843,1101 755,1101 Q661,1101 585,1068.5 Q509,1036 455,976.5 Q401,917 372,833.5 Q343,750 343,649 Q343,538 372.5,453.5 Q402,369 455,312 Q508,255 582.5,226 Q657,197 747,197 Q791,197 834,207 Q877,217 914,237 L914,537 L669,537 Q651,537 641,559.5 Q631,582 631,636 Q631,664 633.5,683 Q636,702 641,713.5 Q646,725 653,730.5 Q660,736 669,736 L1106,736 Q1122,736 1134.5,730.5 Q1147,725 1156.5,714 Q1166,703 1171,687.5 Q1176,672 1176,652 L1176,137 Q1176,107 1165.5,84.5 Q1155,62 1122.5,49 Q1090,36 1042,22 Q994,8 942.5,-2 Q891,-12 838.5,-17 Q786,-22 733,-22 Q578,-22 455.5,22.5 Q333,67 248,151.5 Q163,236 118,357.5 Q73,479 73,633 Q73,792 121,918.5 Q169,1045 257,1133.5 Q345,1222 469.5,1269 Q594,1316 747,1316 Q831,1316 900,1304.5 Q969,1293 1020.5,1276.5 Q1072,1260 1106,1241 Q1140,1222 1153.5,1208 Q1167,1194 1173,1168.5 Q1179,1143 1179,1093"/> 
            <glyph glyph-name="H" unicode="&#x48;" horiz-adv-x="1151" d=" M1151,36 Q1151,26 1144.5,18 Q1138,10 1123,5 Q1108,0 1083,-3 Q1058,-6 1020,-6 Q981,-6 955.5,-3 Q930,0 915.5,5 Q901,10 894.5,18 Q888,26 888,36 L888,559 L404,559 L404,36 Q404,26 398,18 Q392,10 377,5 Q362,0 337,-3 Q312,-6 273,-6 Q235,-6 209.5,-3 Q184,0 169,5 Q154,10 147.5,18 Q141,26 141,36 L141,1258 Q141,1268 147.5,1276 Q154,1284 169,1289 Q184,1294 209.5,1297 Q235,1300 273,1300 Q312,1300 337,1297 Q362,1294 377,1289 Q392,1284 398,1276 Q404,1268 404,1258 L404,783 L888,783 L888,1258 Q888,1268 894.5,1276 Q901,1284 915.5,1289 Q930,1294 955.5,1297 Q981,1300 1020,1300 Q1058,1300 1083,1297 Q1108,1294 1123,1289 Q1138,1284 1144.5,1276 Q1151,1268 1151,1258"/> 
            <glyph glyph-name="I" unicode="&#x49;" horiz-adv-x="405" d=" M405,36 Q405,26 398.5,18 Q392,10 377,5 Q362,0 337,-3 Q312,-6 273,-6 Q235,-6 209.5,-3 Q184,0 169,5 Q154,10 147.5,18 Q141,26 141,36 L141,1258 Q141,1268 147.5,1276 Q154,1284 169.5,1289 Q185,1294 210,1297 Q235,1300 273,1300 Q312,1300 337,1297 Q362,1294 377,1289 Q392,1284 398.5,1276 Q405,1268 405,1258"/> 
            <glyph glyph-name="J" unicode="&#x4A;" horiz-adv-x="539" d=" M539,360 Q539,272 522.5,201.5 Q506,131 466.5,81.5 Q427,32 363,6 Q299,-20 205,-20 Q175,-20 145.5,-15.5 Q116,-11 91.5,-4 Q67,3 49,11 Q31,19 25,25.5 Q19,32 15,39 Q11,46 8,57.5 Q5,69 4,86 Q3,103 3,129 Q3,163 4.5,186.5 Q6,210 9.5,223.5 Q13,237 19.5,242.5 Q26,248 36,248 Q45,248 57,241.5 Q69,235 84,228 Q99,221 119,214.5 Q139,208 166,208 Q193,208 213.5,215.5 Q234,223 247.5,241.5 Q261,260 268,291 Q275,322 275,371 L275,1260 Q275,1270 281.5,1277.5 Q288,1285 302.5,1290 Q317,1295 343,1297.5 Q369,1300 407,1300 Q445,1300 470,1297.5 Q495,1295 510.5,1290 Q526,1285 532.5,1277.5 Q539,1270 539,1260"/> 
            <glyph glyph-name="K" unicode="&#x4B;" horiz-adv-x="1086" d=" M1086,39 Q1086,28 1080.5,19.5 Q1075,11 1059.5,5.5 Q1044,0 1017,-3 Q990,-6 949,-6 Q884,-6 855.5,-1 Q827,4 814.5,14 Q802,24 795,38 L404,652 L404,38 Q404,27 398,19 Q392,11 377,5.5 Q362,0 337,-3 Q312,-6 273,-6 Q235,-6 209.5,-3 Q184,0 169,5.5 Q154,11 147.5,19 Q141,27 141,38 L141,1257 Q141,1268 147.5,1276 Q154,1284 169,1289 Q184,1294 209.5,1297 Q235,1300 273,1300 Q312,1300 337,1297 Q362,1294 377,1289 Q392,1284 398,1276 Q404,1268 404,1257 L404,706 L783,1256 Q790,1269 800,1277.5 Q810,1286 826,1291 Q842,1296 867,1298 Q892,1300 931,1300 Q971,1300 997,1297 Q1023,1294 1038.5,1288.5 Q1054,1283 1060,1275 Q1066,1267 1066,1257 Q1066,1240 1057,1222 Q1048,1204 1023,1165 L668,700 L1055,115 Q1077,74 1081.5,60.5 Q1086,47 1086,39"/> 
            <glyph glyph-name="L" unicode="&#x4C;" horiz-adv-x="852" d=" M852,110 Q852,80 849.5,59.5 Q847,39 842,25.5 Q837,12 829.5,6 Q822,0 812,0 L219,0 Q186,0 163.5,19.5 Q141,39 141,83 L141,1258 Q141,1268 147.5,1276 Q154,1284 169,1289 Q184,1294 209.5,1297 Q235,1300 273,1300 Q312,1300 337,1297 Q362,1294 377,1289 Q392,1284 398.5,1276 Q405,1268 405,1258 L405,217 L812,217 Q822,217 829.5,211.5 Q837,206 842,193.5 Q847,181 849.5,160.5 Q852,140 852,110"/> 
            <glyph glyph-name="M" unicode="&#x4D;" horiz-adv-x="1649" d=" M1649,36 Q1649,26 1643.5,18 Q1638,10 1623.5,5 Q1609,0 1585,-3 Q1561,-6 1524,-6 Q1488,-6 1464,-3 Q1440,0 1426,5 Q1412,10 1406,18 Q1400,26 1400,36 L1400,1089 L1398,1089 L1023,37 Q1019,24 1010,15.5 Q1001,7 985.5,2 Q970,-3 946,-4.5 Q922,-6 888,-6 Q854,-6 830,-3.5 Q806,-1 790.5,4.5 Q775,10 766,18 Q757,26 754,37 L392,1089 L390,1089 L390,36 Q390,26 384.5,18 Q379,10 364,5 Q349,0 325.5,-3 Q302,-6 265,-6 Q229,-6 205,-3 Q181,0 166.5,5 Q152,10 146.5,18 Q141,26 141,36 L141,1189 Q141,1240 168,1267 Q195,1294 240,1294 L412,1294 Q458,1294 491,1286.5 Q524,1279 548,1261.5 Q572,1244 588,1215.5 Q604,1187 616,1145 L896,374 L900,374 L1190,1143 Q1203,1185 1218.5,1214 Q1234,1243 1254.5,1261 Q1275,1279 1303,1286.5 Q1331,1294 1368,1294 L1545,1294 Q1572,1294 1591.5,1287 Q1611,1280 1623.5,1266.5 Q1636,1253 1642.5,1233.5 Q1649,1214 1649,1189"/> 
            <glyph glyph-name="N" unicode="&#x4E;" horiz-adv-x="1208" d=" M1208,92 Q1208,69 1200,51 Q1192,33 1178.5,21 Q1165,9 1146.5,3.5 Q1128,-2 1109,-2 L997,-2 Q962,-2 936.5,5 Q911,12 889.5,30.5 Q868,49 848,80.5 Q828,112 803,162 L481,767 Q453,821 424,883.5 Q395,946 372,1005 L370,1005 Q374,933 376,861.5 Q378,790 378,714 L378,37 Q378,27 372.5,19 Q367,11 353.5,5.5 Q340,0 317,-3 Q294,-6 258,-6 Q223,-6 200,-3 Q177,0 164,5.5 Q151,11 146,19 Q141,27 141,37 L141,1200 Q141,1247 168.5,1270.5 Q196,1294 236,1294 L377,1294 Q415,1294 441,1287.5 Q467,1281 487.5,1266 Q508,1251 526,1224.5 Q544,1198 563,1159 L815,686 Q837,643 858.5,601.5 Q880,560 900,518.5 Q920,477 939,437 Q958,397 976,357 L977,357 Q974,427 972.5,503 Q971,579 971,648 L971,1255 Q971,1265 977,1273 Q983,1281 997,1287 Q1011,1293 1034,1295.5 Q1057,1298 1093,1298 Q1127,1298 1150,1295.5 Q1173,1293 1185.5,1287 Q1198,1281 1203,1273 Q1208,1265 1208,1255"/> 
            <glyph glyph-name="O" unicode="&#x4F;" horiz-adv-x="1305" d=" M1305,662 Q1305,501 1265,374 Q1225,247 1146,158.5 Q1067,70 950.5,23.5 Q834,-23 681,-23 Q530,-23 417.5,16.5 Q305,56 230,137 Q155,218 117.5,343 Q80,468 80,639 Q80,796 120,921.5 Q160,1047 239,1135 Q318,1223 434.5,1270 Q551,1317 705,1317 Q852,1317 964.5,1278 Q1077,1239 1152.5,1158 Q1228,1077 1266.5,953.5 Q1305,830 1305,662 M1029,648 Q1029,750 1013,833.5 Q997,917 958.5,976.5 Q920,1036 856,1068.5 Q792,1101 696,1101 Q599,1101 534,1064.5 Q469,1028 429,967 Q389,906 372.5,824.5 Q356,743 356,652 Q356,546 372,461.5 Q388,377 426,317 Q464,257 528,225.5 Q592,194 689,194 Q786,194 851,230 Q916,266 956,328 Q996,390 1012.5,472.5 Q1029,555 1029,648"/> 
            <glyph glyph-name="P" unicode="&#x50;" horiz-adv-x="1027" d=" M1027,901 Q1027,792 993,708 Q959,624 894,566.5 Q829,509 734.5,479 Q640,449 512,449 L404,449 L404,36 Q404,26 397.5,18 Q391,10 376,5 Q361,0 336,-3 Q311,-6 272,-6 Q234,-6 208.5,-3 Q183,0 168,5 Q153,10 147,18 Q141,26 141,36 L141,1200 Q141,1247 165.5,1270.5 Q190,1294 230,1294 L535,1294 Q581,1294 622.5,1290.5 Q664,1287 722,1275.5 Q780,1264 839.5,1233 Q899,1202 941,1154.5 Q983,1107 1005,1043.5 Q1027,980 1027,901 M752,882 Q752,950 728,994 Q704,1038 669,1059 Q634,1080 595.5,1085.5 Q557,1091 516,1091 L404,1091 L404,652 L522,652 Q585,652 627.5,669 Q670,686 697,716.5 Q724,747 738,789.5 Q752,832 752,882"/> 
            <glyph glyph-name="Q" unicode="&#x51;" horiz-adv-x="1427" d=" M1427,-123 Q1427,-159 1423.5,-181 Q1420,-203 1414,-215 Q1408,-227 1401,-230.5 Q1394,-234 1386,-234 Q1353,-234 1299.5,-216 Q1246,-198 1184,-164.5 Q1122,-131 1057.5,-82.5 Q993,-34 938,29 Q892,8 826.5,-7.5 Q761,-23 681,-23 Q530,-23 417.5,15.5 Q305,54 230,135 Q155,216 117.5,341.5 Q80,467 80,640 Q80,797 120,922.5 Q160,1048 239,1135.5 Q318,1223 434.5,1270 Q551,1317 705,1317 Q850,1317 961.5,1278 Q1073,1239 1149.5,1158.5 Q1226,1078 1265.5,955 Q1305,832 1305,664 Q1305,577 1293.5,500.5 Q1282,424 1260,359 Q1238,294 1206,240 Q1174,186 1133,145 Q1195,91 1243,63 Q1291,35 1323.5,21 Q1356,7 1375.5,0.5 Q1395,-6 1406,-16.5 Q1417,-27 1422,-52.5 Q1427,-78 1427,-123 M1029,650 Q1029,751 1013,834 Q997,917 958.5,976.5 Q920,1036 856,1068.5 Q792,1101 696,1101 Q599,1101 534,1065 Q469,1029 429,968 Q389,907 372.5,825.5 Q356,744 356,654 Q356,547 372,462 Q388,377 426,317 Q464,257 528,225.5 Q592,194 689,194 Q786,194 851,230 Q916,266 956,328 Q996,390 1012.5,473 Q1029,556 1029,650"/> 
            <glyph glyph-name="R" unicode="&#x52;" horiz-adv-x="1101" d=" M1101,34 Q1101,23 1097,15.5 Q1093,8 1078,3 Q1063,-2 1034,-4 Q1005,-6 955,-6 Q913,-6 888,-4 Q863,-2 848.5,3.5 Q834,9 828,17.5 Q822,26 818,38 L702,327 Q681,376 661,414 Q641,452 616.5,477.5 Q592,503 560,516 Q528,529 486,529 L404,529 L404,36 Q404,26 397.5,18 Q391,10 376,5 Q361,0 336,-3 Q311,-6 272,-6 Q234,-6 208.5,-3 Q183,0 168,5 Q153,10 147,18 Q141,26 141,36 L141,1211 Q141,1255 163.5,1274.5 Q186,1294 219,1294 L554,1294 Q605,1294 638,1292 Q671,1290 698,1287 Q776,1276 838.5,1249 Q901,1222 944.5,1178.5 Q988,1135 1011,1075.5 Q1034,1016 1034,939 Q1034,874 1017.5,820.5 Q1001,767 969,725 Q937,683 890,652 Q843,621 783,602 Q812,588 837.5,568 Q863,548 885.5,519.5 Q908,491 928,454.5 Q948,418 967,372 L1076,117 Q1091,79 1096,61.5 Q1101,44 1101,34 M762,912 Q762,976 733,1020 Q704,1064 638,1082 Q618,1087 592.5,1090 Q567,1093 522,1093 L404,1093 L404,726 L538,726 Q594,726 636,739.5 Q678,753 706,777.5 Q734,802 748,836 Q762,870 762,912"/> 
            <glyph glyph-name="S" unicode="&#x53;" horiz-adv-x="908" d=" M908,388 Q908,286 870,209 Q832,132 767,80.5 Q702,29 615,3 Q528,-23 429,-23 Q362,-23 304.5,-12 Q247,-1 203,14.5 Q159,30 129.5,47 Q100,64 87,77 Q74,90 68.5,114.5 Q63,139 63,185 Q63,216 65,237 Q67,258 71.5,271 Q76,284 83.5,289.5 Q91,295 101,295 Q115,295 140.5,278.5 Q166,262 206,242 Q246,222 301.5,205.5 Q357,189 430,189 Q478,189 516,200.5 Q554,212 580.5,233 Q607,254 621,285 Q635,316 635,354 Q635,398 611,429.5 Q587,461 548.5,485.5 Q510,510 461,531.5 Q412,553 360,577 Q308,601 259,631.5 Q210,662 171.5,704.5 Q133,747 109,805 Q85,863 85,944 Q85,1037 119.5,1107.5 Q154,1178 212.5,1224.5 Q271,1271 350.5,1294 Q430,1317 519,1317 Q565,1317 611,1310 Q657,1303 697,1291 Q737,1279 768,1264 Q799,1249 809,1239 Q819,1229 822.5,1222 Q826,1215 828.5,1203.5 Q831,1192 832,1174.5 Q833,1157 833,1131 Q833,1102 831.5,1082 Q830,1062 826.5,1049 Q823,1036 816.5,1030 Q810,1024 799,1024 Q788,1024 764,1038 Q740,1052 705,1068.5 Q670,1085 624,1098.5 Q578,1112 523,1112 Q480,1112 448,1101.5 Q416,1091 394.5,1072.5 Q373,1054 362.5,1028 Q352,1002 352,973 Q352,930 375.5,898.5 Q399,867 438.5,842.5 Q478,818 528,796.5 Q578,775 630,751 Q682,727 732,696.5 Q782,666 821,623.5 Q860,581 884,523.5 Q908,466 908,388"/> 
            <glyph glyph-name="T" unicode="&#x54;" horiz-adv-x="1002" d=" M1002,1186 Q1002,1157 999.5,1136.5 Q997,1116 992,1103.5 Q987,1091 979.5,1085 Q972,1079 963,1079 L639,1079 L639,36 Q639,26 632.5,18 Q626,10 611,5 Q596,0 570.5,-3 Q545,-6 507,-6 Q469,-6 443.5,-3 Q418,0 403,5 Q388,10 381.5,18 Q375,26 375,36 L375,1079 L51,1079 Q41,1079 34,1085 Q27,1091 22,1103.5 Q17,1116 14.5,1136.5 Q12,1157 12,1186 Q12,1216 14.5,1237 Q17,1258 22,1270.5 Q27,1283 34,1288.5 Q41,1294 51,1294 L963,1294 Q972,1294 979.5,1288.5 Q987,1283 992,1270.5 Q997,1258 999.5,1237 Q1002,1216 1002,1186"/> 
            <glyph glyph-name="U" unicode="&#x55;" horiz-adv-x="1197" d=" M1197,482 Q1197,363 1162,269 Q1127,175 1059,110 Q991,45 891,11 Q791,-23 661,-23 Q539,-23 442,7.5 Q345,38 278,100 Q211,162 175.5,254.5 Q140,347 140,471 L140,1258 Q140,1268 146,1276 Q152,1284 167.5,1289 Q183,1294 208,1297 Q233,1300 272,1300 Q310,1300 335,1297 Q360,1294 375,1289 Q390,1284 396.5,1276 Q403,1268 403,1258 L403,494 Q403,417 422,360.5 Q441,304 476.5,267 Q512,230 561.5,211.5 Q611,193 672,193 Q734,193 783,212 Q832,231 866,267.5 Q900,304 918.5,357.5 Q937,411 937,479 L937,1258 Q937,1268 943,1276 Q949,1284 964,1289 Q979,1294 1004.5,1297 Q1030,1300 1068,1300 Q1106,1300 1130.5,1297 Q1155,1294 1170,1289 Q1185,1284 1191,1276 Q1197,1268 1197,1258"/> 
            <glyph glyph-name="V" unicode="&#x56;" horiz-adv-x="1190" d=" M785,46 Q780,29 772,18.5 Q764,8 746,2.5 Q728,-3 697,-4.5 Q666,-6 616,-6 Q576,-6 547.5,-5.5 Q519,-5 499,-3 Q479,-1 466.5,3 Q454,7 445.5,13 Q437,19 432.5,27.5 Q428,36 424,49 L39,1196 Q27,1232 24.5,1253 Q22,1274 34.5,1284.5 Q47,1295 77,1297.5 Q107,1300 161,1300 Q207,1300 233,1298 Q259,1296 273,1291 Q287,1286 292.5,1276 Q298,1266 303,1251 L618,253 L619,253 L928,1246 Q932,1263 938,1273.5 Q944,1284 958.5,1290 Q973,1296 1000,1298 Q1027,1300 1074,1300 Q1120,1300 1145.5,1297 Q1171,1294 1180.5,1282.5 Q1190,1271 1186.5,1250 Q1183,1229 1171,1194"/> 
            <glyph glyph-name="W" unicode="&#x57;" horiz-adv-x="1812" d=" M1503,67 Q1497,43 1486.5,28.5 Q1476,14 1455,6.5 Q1434,-1 1401,-3.5 Q1368,-6 1317,-6 Q1260,-6 1225.5,-3.5 Q1191,-1 1171,6.5 Q1151,14 1142,28.5 Q1133,43 1128,67 L921,887 L919,887 L723,67 Q718,44 709,29.5 Q700,15 680.5,7 Q661,-1 627.5,-3.5 Q594,-6 539,-6 Q481,-6 446.5,-3.5 Q412,-1 392,6.5 Q372,14 363,28.5 Q354,43 348,67 L54,1196 Q45,1232 44,1252.5 Q43,1273 55.5,1284 Q68,1295 96.5,1297.5 Q125,1300 176,1300 Q223,1300 250.5,1298.5 Q278,1297 292,1291.5 Q306,1286 311,1275.5 Q316,1265 319,1246 L546,255 L547,255 L783,1239 Q787,1258 793.5,1270 Q800,1282 815.5,1288.5 Q831,1295 858,1297.5 Q885,1300 930,1300 Q978,1300 1006.5,1298 Q1035,1296 1050.5,1289.5 Q1066,1283 1073,1271 Q1080,1259 1084,1239 L1328,255 L1330,255 L1557,1243 Q1560,1259 1565,1270.5 Q1570,1282 1584,1288.5 Q1598,1295 1624,1297.5 Q1650,1300 1697,1300 Q1741,1300 1765.5,1297.5 Q1790,1295 1801,1284 Q1812,1273 1810.5,1251.5 Q1809,1230 1800,1193"/> 
            <glyph glyph-name="X" unicode="&#x58;" horiz-adv-x="1092" d=" M1063,99 Q1081,64 1086.5,43 Q1092,22 1080,11 Q1068,0 1036.5,-3 Q1005,-6 949,-6 Q902,-6 875,-4 Q848,-2 832.5,2.5 Q817,7 810,15 Q803,23 798,35 L555,502 L313,35 Q307,23 300,15 Q293,7 277.5,2.5 Q262,-2 234.5,-4 Q207,-6 162,-6 Q110,-6 81.5,-3 Q53,0 43,11 Q33,22 39,43 Q45,64 64,99 L374,664 L86,1195 Q68,1231 61.5,1252.5 Q55,1274 66.5,1284.5 Q78,1295 109,1297.5 Q140,1300 197,1300 Q244,1300 271.5,1298 Q299,1296 315,1291.5 Q331,1287 337.5,1279 Q344,1271 350,1259 L577,831 L798,1259 Q804,1271 810.5,1279 Q817,1287 831.5,1291.5 Q846,1296 871.5,1298 Q897,1300 942,1300 Q992,1300 1021,1297.5 Q1050,1295 1061,1284 Q1072,1273 1066.5,1252 Q1061,1231 1044,1195 L756,667"/> 
            <glyph glyph-name="Y" unicode="&#x59;" horiz-adv-x="1048" d=" M664,491 L664,36 Q664,26 657.5,18 Q651,10 636,5 Q621,0 595.5,-3 Q570,-6 532,-6 Q493,-6 468,-3 Q443,0 427.5,5 Q412,10 406,18 Q400,26 400,36 L400,491 L46,1196 Q27,1233 21.5,1253.5 Q16,1274 27.5,1284.5 Q39,1295 70,1297.5 Q101,1300 156,1300 Q202,1300 229.5,1298 Q257,1296 273,1290.5 Q289,1285 296.5,1276 Q304,1267 311,1253 L455,935 Q476,889 496.5,838 Q517,787 538,731 L540,731 Q559,785 579,836 Q599,887 618,933 L760,1249 Q765,1265 772.5,1274.5 Q780,1284 795,1290 Q810,1296 836,1298 Q862,1300 905,1300 Q962,1300 993.5,1297.5 Q1025,1295 1036.5,1284.5 Q1048,1274 1042,1253 Q1036,1232 1018,1196"/> 
            <glyph glyph-name="Z" unicode="&#x5A;" horiz-adv-x="936" d=" M936,104 Q936,75 933.5,55 Q931,35 926,22.5 Q921,10 913.5,5 Q906,0 897,0 L134,0 Q94,0 72.5,23 Q51,46 51,90 L51,134 Q51,154 53.5,170.5 Q56,187 62,204 Q68,221 79.5,241 Q91,261 108,289 L610,1085 L112,1085 Q100,1085 91.5,1090.5 Q83,1096 77.5,1108 Q72,1120 69.5,1140 Q67,1160 67,1188 Q67,1218 69.5,1238.5 Q72,1259 77.5,1271.5 Q83,1284 91.5,1289 Q100,1294 112,1294 L827,1294 Q868,1294 887.5,1273 Q907,1252 907,1214 L907,1165 Q907,1138 904.5,1118.5 Q902,1099 895.5,1080.5 Q889,1062 878,1042.5 Q867,1023 850,996 L356,211 L897,211 Q916,211 926,187 Q936,163 936,104"/> 
            <glyph glyph-name="[" unicode="&#x5B;" horiz-adv-x="578" d=" M578,-248 Q578,-298 569,-318 Q560,-338 543,-338 L234,-338 Q217,-338 203,-333 Q189,-328 179,-318 Q169,-308 163,-292 Q157,-276 157,-254 L157,1332 Q157,1353 163,1369 Q169,1385 179,1395.5 Q189,1406 203,1410.5 Q217,1415 234,1415 L543,1415 Q551,1415 558,1410.5 Q565,1406 569.5,1395.5 Q574,1385 576,1368 Q578,1351 578,1325 Q578,1274 569,1254.5 Q560,1235 543,1235 L392,1235 L392,-158 L543,-158 Q551,-158 558,-162 Q565,-166 569.5,-177 Q574,-188 576,-205 Q578,-222 578,-248"/> 
            <glyph glyph-name="\" unicode="&#x5C;" horiz-adv-x="876" d=" M866,-218 Q874,-243 875,-258.5 Q876,-274 864.5,-281 Q853,-288 828,-290.5 Q803,-293 759,-293 Q719,-293 694.5,-291 Q670,-289 656,-285 Q642,-281 636,-273.5 Q630,-266 625,-255 L39,1396 Q30,1422 29,1437 Q28,1452 39.5,1459 Q51,1466 76,1468.5 Q101,1471 145,1471 Q185,1471 209.5,1469 Q234,1467 248,1463 Q262,1459 268,1451.5 Q274,1444 278,1433"/> 
            <glyph glyph-name="]" unicode="&#x5D;" horiz-adv-x="510" d=" M510,-254 Q510,-276 503.5,-292 Q497,-308 487,-318 Q477,-328 463,-333 Q449,-338 432,-338 L122,-338 Q105,-338 96,-318 Q87,-298 87,-248 Q87,-222 89.5,-205 Q92,-188 96.5,-177 Q101,-166 107.5,-162 Q114,-158 122,-158 L274,-158 L274,1235 L122,1235 Q105,1235 96,1254.5 Q87,1274 87,1325 Q87,1351 89.5,1368 Q92,1385 96.5,1395.5 Q101,1406 107.5,1410.5 Q114,1415 122,1415 L432,1415 Q449,1415 463,1410.5 Q477,1406 487,1395.5 Q497,1385 503.5,1369 Q510,1353 510,1332"/> 
            <glyph glyph-name="^" unicode="&#x5E;" horiz-adv-x="987" d=" M968,596 Q981,568 984,551 Q987,534 976.5,525 Q966,516 940.5,513.5 Q915,511 871,511 Q832,511 806.5,513.5 Q781,516 764.5,521.5 Q748,527 739.5,535.5 Q731,544 726,556 L505,1097 L500,1096 L288,556 Q283,544 274.5,535.5 Q266,527 250,521.5 Q234,516 208.5,513.5 Q183,511 144,511 Q100,511 75.5,513.5 Q51,516 40.5,525 Q30,534 33,551 Q36,568 49,596 L337,1252 Q343,1265 355,1274.5 Q367,1284 387.5,1290.5 Q408,1297 437,1300.5 Q466,1304 506,1304 Q546,1304 575.5,1300.5 Q605,1297 625,1290.5 Q645,1284 657,1274.5 Q669,1265 675,1252"/> 
            <glyph glyph-name="_" unicode="&#x5F;" horiz-adv-x="1026" d=" M1026,-272 Q1026,-322 1016.5,-343.5 Q1007,-365 985,-365 L35,-365 Q12,-365 2.5,-344 Q-7,-323 -7,-273 Q-7,-223 2.5,-201 Q12,-179 35,-179 L985,-179 Q1007,-179 1016.5,-200 Q1026,-221 1026,-272"/> 
            <glyph glyph-name="`" unicode="&#x60;" horiz-adv-x="515" d=" M502,1135 Q511,1122 513,1112 Q515,1102 506.5,1095.5 Q498,1089 478.5,1086 Q459,1083 424,1083 Q395,1083 376,1085 Q357,1087 344,1091 Q331,1095 322.5,1101.5 Q314,1108 306,1118 L113,1350 Q103,1361 102,1371 Q101,1381 112.5,1388.5 Q124,1396 151,1400 Q178,1404 224,1404 Q257,1404 279.5,1402 Q302,1400 317,1395.5 Q332,1391 341.5,1383 Q351,1375 359,1364 M0,960"/> 
            <glyph glyph-name="a" unicode="&#x61;" horiz-adv-x="886" d=" M886,31 Q886,17 876,9 Q866,1 844.5,-2.5 Q823,-6 781,-6 Q736,-6 715.5,-2.5 Q695,1 686.5,9 Q678,17 678,31 L678,102 Q623,43 552.5,10 Q482,-23 396,-23 Q325,-23 265.5,-4.5 Q206,14 162.5,50.5 Q119,87 95,141 Q71,195 71,267 Q71,345 101.5,402.5 Q132,460 192.5,497.5 Q253,535 343,553 Q433,571 552,571 L639,571 L639,625 Q639,667 630.5,698.5 Q622,730 602.5,751 Q583,772 550.5,782 Q518,792 470,792 Q407,792 357.5,778 Q308,764 270,747 Q232,730 206.5,716 Q181,702 165,702 Q154,702 145.5,709 Q137,716 131.5,729 Q126,742 123,761 Q120,780 120,803 Q120,834 125,852 Q130,870 144,884.5 Q158,899 193,916.5 Q228,934 275,949 Q322,964 377.5,973.5 Q433,983 492,983 Q597,983 671.5,962.5 Q746,942 794,899.5 Q842,857 864,790 Q886,723 886,631 M639,413 L543,413 Q482,413 439,404 Q396,395 369,377 Q342,359 329.5,333.5 Q317,308 317,275 Q317,219 352.5,187 Q388,155 451,155 Q504,155 548.5,182 Q593,209 639,261"/> 
            <glyph glyph-name="b" unicode="&#x62;" horiz-adv-x="1024" d=" M1024,492 Q1024,373 998,278 Q972,183 923,116 Q874,49 802.5,13 Q731,-23 640,-23 Q595,-23 556,-14.5 Q517,-6 481.5,13 Q446,32 411.5,61 Q377,90 341,131 L341,34 Q341,23 335.5,15.5 Q330,8 317.5,3 Q305,-2 284,-4 Q263,-6 233,-6 Q202,-6 181.5,-4 Q161,-2 148.5,3 Q136,8 131,15.5 Q126,23 126,34 L126,1349 Q126,1359 132,1367 Q138,1375 152.5,1380.5 Q167,1386 191,1389 Q215,1392 252,1392 Q289,1392 313,1389 Q337,1386 351.5,1380.5 Q366,1375 372,1367 Q378,1359 378,1349 L378,856 Q412,890 446,914 Q480,938 514,953.5 Q548,969 584,976 Q620,983 660,983 Q759,983 828,943.5 Q897,904 940.5,837 Q984,770 1004,680.5 Q1024,591 1024,492 M763,474 Q763,531 754.5,584 Q746,637 725,678 Q704,719 670.5,743.5 Q637,768 586,768 Q561,768 537,761 Q513,754 487.5,737 Q462,720 435,693 Q408,666 378,626 L378,330 Q431,262 479.5,226.5 Q528,191 581,191 Q630,191 664,216 Q698,241 720.5,281 Q743,321 753,372 Q763,423 763,474"/> 
            <glyph glyph-name="c" unicode="&#x63;" horiz-adv-x="801" d=" M801,176 Q801,150 799.5,132.5 Q798,115 795.5,103 Q793,91 789.5,83.5 Q786,76 774,64.5 Q762,53 733,36.5 Q704,20 667,7 Q630,-6 586.5,-14 Q543,-22 497,-22 Q394,-22 314.5,10 Q235,42 181,104.5 Q127,167 99.5,257 Q72,347 72,463 Q72,597 105.5,694.5 Q139,792 199,856 Q259,920 341,951 Q423,982 521,982 Q561,982 599.5,975 Q638,968 671.5,956 Q705,944 731.5,929 Q758,914 769,903 Q780,892 784.5,884.5 Q789,877 791.5,865 Q794,853 795.5,835.5 Q797,818 797,793 Q797,735 787,711.5 Q777,688 761,688 Q744,688 725,702 Q706,716 680,733 Q654,750 618,764 Q582,778 532,778 Q434,778 382,702.5 Q330,627 330,481 Q330,409 343,354 Q356,299 381.5,262 Q407,225 445.5,206.5 Q484,188 535,188 Q587,188 624.5,203.5 Q662,219 690,238 Q718,257 737,272.5 Q756,288 769,288 Q778,288 784,283 Q790,278 793.5,264.5 Q797,251 799,230 Q801,209 801,176"/> 
            <glyph glyph-name="d" unicode="&#x64;" horiz-adv-x="972" d=" M972,34 Q972,23 967,15.5 Q962,8 950,3 Q938,-2 917.5,-4 Q897,-6 867,-6 Q835,-6 815,-4 Q795,-2 782.5,3 Q770,8 764.5,15.5 Q759,23 759,34 L759,133 Q690,59 614.5,18 Q539,-23 447,-23 Q345,-23 274.5,16.5 Q204,56 159.5,123 Q115,190 95,279.5 Q75,369 75,468 Q75,587 100.5,682 Q126,777 175,844 Q224,911 297,947 Q370,983 465,983 Q540,983 601,952.5 Q662,922 722,863 L722,1346 Q722,1356 727.5,1364 Q733,1372 747.5,1377.5 Q762,1383 786,1386 Q810,1389 847,1389 Q884,1389 908,1386 Q932,1383 946,1377.5 Q960,1372 966,1364 Q972,1356 972,1346 M722,630 Q668,698 618.5,734 Q569,770 515,770 Q466,770 430.5,745.5 Q395,721 373.5,680 Q352,639 341.5,588.5 Q331,538 331,485 Q331,429 340,376 Q349,323 369.5,281.5 Q390,240 424,215 Q458,190 510,190 Q536,190 560.5,197.5 Q585,205 610.5,222 Q636,239 663,266.5 Q690,294 722,334"/> 
            <glyph glyph-name="e" unicode="&#x65;" horiz-adv-x="950" d=" M950,506 Q950,460 929.5,438 Q909,416 873,416 L330,416 Q330,359 343.5,312.5 Q357,266 386.5,233.5 Q416,201 462.5,184 Q509,167 574,167 Q640,167 690,176.5 Q740,186 776.5,197.5 Q813,209 837,218.5 Q861,228 876,228 Q885,228 891,224.5 Q897,221 901,212 Q905,203 906.5,186.5 Q908,170 908,145 Q908,123 907,107.5 Q906,92 904,81 Q902,70 898,62.5 Q894,55 887.5,48 Q881,41 852,29 Q823,17 778,5.5 Q733,-6 675,-14.5 Q617,-23 551,-23 Q432,-23 342.5,7 Q253,37 193,98 Q133,159 103.5,252 Q74,345 74,470 Q74,589 105,684.5 Q136,780 195,846.5 Q254,913 338.5,948 Q423,983 529,983 Q641,983 720.5,950 Q800,917 851,858.5 Q902,800 926,720 Q950,640 950,546 M706,578 Q709,684 663.5,744.5 Q618,805 523,805 Q475,805 439.5,787 Q404,769 380.5,738.5 Q357,708 344.5,666.5 Q332,625 330,578"/> 
            <glyph glyph-name="f" unicode="&#x66;" horiz-adv-x="664" d=" M664,1266 Q664,1237 662,1219.5 Q660,1202 656,1192.5 Q652,1183 647,1179.5 Q642,1176 636,1176 Q629,1176 620.5,1179.5 Q612,1183 599.5,1187 Q587,1191 570,1194.5 Q553,1198 530,1198 Q503,1198 483.5,1189.5 Q464,1181 451,1162.5 Q438,1144 432,1114.5 Q426,1085 426,1042 L426,960 L589,960 Q598,960 605.5,955 Q613,950 618,938.5 Q623,927 625.5,907 Q628,887 628,858 Q628,803 618,779.5 Q608,756 589,756 L426,756 L426,34 Q426,24 420,16.5 Q414,9 400,4 Q386,-1 361,-3.5 Q336,-6 300,-6 Q264,-6 239.5,-3.5 Q215,-1 200.5,4 Q186,9 180.5,16.5 Q175,24 175,34 L175,756 L63,756 Q44,756 34.5,779.5 Q25,803 25,858 Q25,887 27.5,907 Q30,927 34.5,938.5 Q39,950 46.5,955 Q54,960 64,960 L175,960 L175,1035 Q175,1126 193,1194.5 Q211,1263 249.5,1308.5 Q288,1354 347.5,1377 Q407,1400 488,1400 Q527,1400 562,1393.5 Q597,1387 617,1379.5 Q637,1372 644,1365.5 Q651,1359 655.5,1346.5 Q660,1334 662,1314.5 Q664,1295 664,1266"/> 
            <glyph glyph-name="g" unicode="&#x67;" horiz-adv-x="930" d=" M930,864 Q930,816 919,793 Q908,770 892,770 L787,770 Q809,746 818.5,715.5 Q828,685 828,652 Q828,574 802,513.5 Q776,453 727.5,411.5 Q679,370 610.5,348.5 Q542,327 458,327 Q415,327 376,337.5 Q337,348 316,362 Q304,349 294.5,331 Q285,313 285,291 Q285,262 310.5,243.5 Q336,225 382,223 L599,215 Q675,212 734.5,193.5 Q794,175 834.5,141.5 Q875,108 896.5,61 Q918,14 918,-46 Q918,-112 889,-170.5 Q860,-229 802,-272 Q744,-315 656.5,-340 Q569,-365 452,-365 Q338,-365 257.5,-347 Q177,-329 125.5,-297 Q74,-265 50.5,-220.5 Q27,-176 27,-123 Q27,-90 35.5,-60 Q44,-30 60.5,-2.5 Q77,25 101,50 Q125,75 156,98 Q113,121 89.5,160.5 Q66,200 66,247 Q66,306 93,354.5 Q120,403 163,442 Q128,477 107,526 Q86,575 86,648 Q86,726 113.5,787.5 Q141,849 190,891.5 Q239,934 307,956.5 Q375,979 457,979 Q499,979 537.5,974 Q576,969 609,960 L892,960 Q909,960 919.5,938 Q930,916 930,864 M607,653 Q607,725 567,765 Q527,805 454,805 Q417,805 389,792.5 Q361,780 342.5,758.5 Q324,737 315,708.5 Q306,680 306,649 Q306,581 346,541.5 Q386,502 457,502 Q495,502 523,514 Q551,526 569.5,547 Q588,568 597.5,595.5 Q607,623 607,653 M666,-59 Q666,-14 630,10 Q594,34 531,36 L352,41 Q326,22 310.5,4.5 Q295,-13 285.5,-29 Q276,-45 273,-60 Q270,-75 270,-91 Q270,-141 320.5,-167 Q371,-193 463,-193 Q520,-193 559,-181.5 Q598,-170 622,-151 Q646,-132 656,-108.5 Q666,-85 666,-59"/> 
            <glyph glyph-name="h" unicode="&#x68;" horiz-adv-x="978" d=" M978,34 Q978,24 972,16.5 Q966,9 952,4 Q938,-1 913.5,-3.5 Q889,-6 853,-6 Q816,-6 791.5,-3.5 Q767,-1 753,4 Q739,9 733,16.5 Q727,24 727,34 L727,543 Q727,608 717.5,645 Q708,682 690,708.5 Q672,735 643.5,749.5 Q615,764 577,764 Q529,764 480,729 Q431,694 378,627 L378,34 Q378,24 372,16.5 Q366,9 351.5,4 Q337,-1 313,-3.5 Q289,-6 252,-6 Q215,-6 191,-3.5 Q167,-1 152.5,4 Q138,9 132,16.5 Q126,24 126,34 L126,1349 Q126,1359 132,1367 Q138,1375 152.5,1380.5 Q167,1386 191,1389 Q215,1392 252,1392 Q289,1392 313,1389 Q337,1386 351.5,1380.5 Q366,1375 372,1367 Q378,1359 378,1349 L378,856 Q443,920 510.5,951.5 Q578,983 651,983 Q742,983 804.5,953 Q867,923 905.5,871 Q944,819 961,749.5 Q978,680 978,581"/> 
            <glyph glyph-name="i" unicode="&#x69;" horiz-adv-x="397" d=" M378,34 Q378,24 372,16.5 Q366,9 351.5,4 Q337,-1 313,-3.5 Q289,-6 252,-6 Q215,-6 191,-3.5 Q167,-1 152.5,4 Q138,9 132,16.5 Q126,24 126,34 L126,924 Q126,934 132,941.5 Q138,949 152.5,954.5 Q167,960 191,963 Q215,966 252,966 Q289,966 313,963 Q337,960 351.5,954.5 Q366,949 372,941.5 Q378,934 378,924 M397,1228 Q397,1152 366,1123 Q335,1094 251,1094 Q166,1094 136.5,1122 Q107,1150 107,1223 Q107,1299 137.5,1328.5 Q168,1358 253,1358 Q337,1358 367,1329.5 Q397,1301 397,1228"/> 
            <glyph glyph-name="j" unicode="&#x6A;" horiz-adv-x="416" d=" M397,4 Q397,-101 379,-166 Q361,-231 324.5,-275.5 Q288,-320 233,-342.5 Q178,-365 104,-365 Q63,-365 34,-359.5 Q5,-354 -8,-348 Q-21,-342 -26,-333 Q-31,-324 -33,-312.5 Q-35,-301 -36,-286.5 Q-37,-272 -37,-249 Q-37,-221 -35.5,-202.5 Q-34,-184 -30,-173 Q-26,-162 -21,-157 Q-16,-152 -8,-152 Q-3,-152 12.5,-154.5 Q28,-157 46,-157 Q72,-157 91,-149 Q110,-141 122,-123.5 Q134,-106 140,-78.5 Q146,-51 146,9 L146,924 Q146,934 152,941.5 Q158,949 172,954.5 Q186,960 210,963 Q234,966 271,966 Q308,966 332,963 Q356,960 370.5,954.5 Q385,949 391,941.5 Q397,934 397,924 M416,1228 Q416,1152 385.5,1123 Q355,1094 270,1094 Q186,1094 156,1122 Q126,1150 126,1223 Q126,1299 157,1328.5 Q188,1358 272,1358 Q357,1358 386.5,1329.5 Q416,1301 416,1228"/> 
            <glyph glyph-name="k" unicode="&#x6B;" horiz-adv-x="955" d=" M955,33 Q955,23 949.5,15.5 Q944,8 929.5,3.5 Q915,-1 890,-3.5 Q865,-6 825,-6 Q784,-6 758.5,-4 Q733,-2 716.5,2.5 Q700,7 691,15 Q682,23 675,36 L378,506 L378,34 Q378,24 372,16.5 Q366,9 351.5,4 Q337,-1 313,-3.5 Q289,-6 252,-6 Q215,-6 191,-3.5 Q167,-1 152.5,4 Q138,9 132,16.5 Q126,24 126,34 L126,1349 Q126,1359 132,1367 Q138,1375 152.5,1380.5 Q167,1386 191,1389 Q215,1392 252,1392 Q289,1392 313,1389 Q337,1386 351.5,1380.5 Q366,1375 372,1367 Q378,1359 378,1349 L378,566 L642,921 Q650,933 660,942 Q670,951 686.5,956 Q703,961 727.5,963.5 Q752,966 790,966 Q827,966 852.5,963.5 Q878,961 893.5,956 Q909,951 915,943.5 Q921,936 921,925 Q921,910 913.5,893 Q906,876 891,857 L630,561 L932,94 Q944,74 949.5,59.5 Q955,45 955,33"/> 
            <glyph glyph-name="l" unicode="&#x6C;" horiz-adv-x="378" d=" M378,34 Q378,24 372,16.5 Q366,9 351.5,4 Q337,-1 313,-3.5 Q289,-6 252,-6 Q215,-6 191,-3.5 Q167,-1 152.5,4 Q138,9 132,16.5 Q126,24 126,34 L126,1349 Q126,1359 132,1367 Q138,1375 152.5,1380.5 Q167,1386 191,1389 Q215,1392 252,1392 Q289,1392 313,1389 Q337,1386 351.5,1380.5 Q366,1375 372,1367 Q378,1359 378,1349"/> 
            <glyph glyph-name="m" unicode="&#x6D;" horiz-adv-x="1545" d=" M1545,34 Q1545,24 1539,16.5 Q1533,9 1519,4 Q1505,-1 1481,-3.5 Q1457,-6 1420,-6 Q1382,-6 1358,-3.5 Q1334,-1 1319.5,4 Q1305,9 1299.5,16.5 Q1294,24 1294,34 L1294,563 Q1294,608 1285.5,645 Q1277,682 1259.5,708.5 Q1242,735 1215.5,749.5 Q1189,764 1152,764 Q1107,764 1061,729 Q1015,694 961,627 L961,34 Q961,24 955,16.5 Q949,9 934.5,4 Q920,-1 896,-3.5 Q872,-6 836,-6 Q799,-6 775,-3.5 Q751,-1 736.5,4 Q722,9 716,16.5 Q710,24 710,34 L710,563 Q710,608 701.5,645 Q693,682 676,708.5 Q659,735 632,749.5 Q605,764 569,764 Q523,764 477,729 Q431,694 378,627 L378,34 Q378,24 372,16.5 Q366,9 351.5,4 Q337,-1 313,-3.5 Q289,-6 252,-6 Q215,-6 191,-3.5 Q167,-1 152.5,4 Q138,9 132,16.5 Q126,24 126,34 L126,926 Q126,936 131,943.5 Q136,951 149,956 Q162,961 182.5,963.5 Q203,966 234,966 Q266,966 287,963.5 Q308,961 319.5,956 Q331,951 336,943.5 Q341,936 341,926 L341,823 Q415,903 488.5,943 Q562,983 642,983 Q697,983 741,971.5 Q785,960 819.5,938.5 Q854,917 879,887 Q904,857 921,820 Q961,863 999.5,894 Q1038,925 1075.5,944.5 Q1113,964 1150.5,973.5 Q1188,983 1227,983 Q1316,983 1377,953 Q1438,923 1475.5,871.5 Q1513,820 1529,751 Q1545,682 1545,605"/> 
            <glyph glyph-name="n" unicode="&#x6E;" horiz-adv-x="978" d=" M978,34 Q978,24 972,16.5 Q966,9 952,4 Q938,-1 913.5,-3.5 Q889,-6 853,-6 Q816,-6 791.5,-3.5 Q767,-1 753,4 Q739,9 733,16.5 Q727,24 727,34 L727,543 Q727,608 717.5,645 Q708,682 690,708.5 Q672,735 643.5,749.5 Q615,764 577,764 Q529,764 480,729 Q431,694 378,627 L378,34 Q378,24 372,16.5 Q366,9 351.5,4 Q337,-1 313,-3.5 Q289,-6 252,-6 Q215,-6 191,-3.5 Q167,-1 152.5,4 Q138,9 132,16.5 Q126,24 126,34 L126,926 Q126,936 131,943.5 Q136,951 149,956 Q162,961 182.5,963.5 Q203,966 234,966 Q266,966 287,963.5 Q308,961 319.5,956 Q331,951 336,943.5 Q341,936 341,926 L341,823 Q415,903 491.5,943 Q568,983 651,983 Q742,983 804.5,953 Q867,923 905.5,871.5 Q944,820 961,751 Q978,682 978,585"/> 
            <glyph glyph-name="o" unicode="&#x6F;" horiz-adv-x="1028" d=" M1028,489 Q1028,375 998,281 Q968,187 907,119 Q846,51 754,14 Q662,-23 539,-23 Q420,-23 332,10 Q244,43 186,106 Q128,169 100,261 Q72,353 72,471 Q72,585 102.5,679.5 Q133,774 194,841.5 Q255,909 346.5,946 Q438,983 561,983 Q681,983 769,950.5 Q857,918 914.5,855 Q972,792 1000,700 Q1028,608 1028,489 M769,479 Q769,545 758.5,600.5 Q748,656 723,697 Q698,738 656.5,761 Q615,784 552,784 Q496,784 454,763.5 Q412,743 385,703.5 Q358,664 344.5,608.5 Q331,553 331,482 Q331,416 342,360.5 Q353,305 377.5,264 Q402,223 444,200.5 Q486,178 548,178 Q605,178 647,198.5 Q689,219 716,258 Q743,297 756,352.5 Q769,408 769,479"/> 
            <glyph glyph-name="p" unicode="&#x70;" horiz-adv-x="1024" d=" M1024,493 Q1024,374 998.5,278.5 Q973,183 924,116 Q875,49 802,13 Q729,-23 635,-23 Q596,-23 563.5,-15.5 Q531,-8 500.5,7.5 Q470,23 440,46 Q410,69 378,100 L378,-320 Q378,-330 372,-338 Q366,-346 351.5,-351.5 Q337,-357 313,-360 Q289,-363 252,-363 Q215,-363 191,-360 Q167,-357 152.5,-351.5 Q138,-346 132,-338 Q126,-330 126,-320 L126,926 Q126,936 131,943.5 Q136,951 148.5,956 Q161,961 181.5,963.5 Q202,966 233,966 Q263,966 283.5,963.5 Q304,961 316.5,956 Q329,951 334,943.5 Q339,936 339,926 L339,821 Q378,861 415.5,891.5 Q453,922 492,942.5 Q531,963 572.5,973 Q614,983 661,983 Q759,983 828,944.5 Q897,906 940.5,839 Q984,772 1004,683 Q1024,594 1024,493 M762,475 Q762,532 753.5,584.5 Q745,637 724.5,678 Q704,719 670.5,743.5 Q637,768 587,768 Q562,768 537.5,760.5 Q513,753 487.5,736 Q462,719 435,692 Q408,665 378,625 L378,331 Q431,264 479,227.5 Q527,191 579,191 Q628,191 662.5,216 Q697,241 719,281.5 Q741,322 751.5,373 Q762,424 762,475"/> 
            <glyph glyph-name="q" unicode="&#x71;" horiz-adv-x="972" d=" M972,-320 Q972,-330 966,-338 Q960,-346 946,-351.5 Q932,-357 908,-360 Q884,-363 847,-363 Q810,-363 786,-360 Q762,-357 747.5,-351.5 Q733,-346 727.5,-338 Q722,-330 722,-320 L722,104 Q686,71 652,46.5 Q618,22 584,6.5 Q550,-9 514,-16 Q478,-23 438,-23 Q340,-23 271,16.5 Q202,56 158.5,123 Q115,190 95,279.5 Q75,369 75,468 Q75,587 101,682 Q127,777 177,844 Q227,911 300,947 Q373,983 469,983 Q506,983 540,975.5 Q574,968 608,949.5 Q642,931 678.5,901.5 Q715,872 759,829 L759,926 Q759,936 764.5,943.5 Q770,951 782.5,956 Q795,961 815,963.5 Q835,966 867,966 Q897,966 917.5,963.5 Q938,961 950,956 Q962,951 967,943.5 Q972,936 972,926 M722,630 Q668,698 618.5,734 Q569,770 515,770 Q466,770 430.5,745.5 Q395,721 373.5,680 Q352,639 341.5,588.5 Q331,538 331,485 Q331,429 340,375.5 Q349,322 369.5,281 Q390,240 424,215 Q458,190 510,190 Q536,190 560.5,197.5 Q585,205 610.5,222 Q636,239 663,266.5 Q690,294 722,334"/> 
            <glyph glyph-name="r" unicode="&#x72;" horiz-adv-x="699" d=" M699,843 Q699,807 697,784 Q695,761 691,748 Q687,735 680.5,730 Q674,725 664,725 Q656,725 646,728.5 Q636,732 623.5,736 Q611,740 596,743.5 Q581,747 563,747 Q542,747 521,738.5 Q500,730 477.5,712 Q455,694 430.5,664 Q406,634 378,590 L378,34 Q378,24 372,16.5 Q366,9 351.5,4 Q337,-1 313,-3.5 Q289,-6 252,-6 Q215,-6 191,-3.5 Q167,-1 152.5,4 Q138,9 132,16.5 Q126,24 126,34 L126,926 Q126,936 131,943.5 Q136,951 149,956 Q162,961 182.5,963.5 Q203,966 234,966 Q266,966 287,963.5 Q308,961 319.5,956 Q331,951 336,943.5 Q341,936 341,926 L341,815 Q376,865 407,897.5 Q438,930 466,949 Q494,968 522,975.5 Q550,983 578,983 Q591,983 606,981.5 Q621,980 637,976.5 Q653,973 665,968.5 Q677,964 682.5,959 Q688,954 690.5,948 Q693,942 695,931.5 Q697,921 698,900 Q699,879 699,843"/> 
            <glyph glyph-name="s" unicode="&#x73;" horiz-adv-x="754" d=" M754,286 Q754,210 725.5,152 Q697,94 645,55 Q593,16 522,-3.5 Q451,-23 368,-23 Q318,-23 272.5,-15.5 Q227,-8 191,3.5 Q155,15 131,27 Q107,39 96,49.5 Q85,60 79,82.5 Q73,105 73,149 Q73,178 75,195.5 Q77,213 81,223.5 Q85,234 91,237.5 Q97,241 106,241 Q117,241 138.5,228.5 Q160,216 192,201 Q224,186 266.5,173 Q309,160 363,160 Q397,160 423.5,167 Q450,174 469.5,187 Q489,200 499,220 Q509,240 509,266 Q509,296 490.5,317.5 Q472,339 441.5,355 Q411,371 372.5,385 Q334,399 293.5,416 Q253,433 214.5,455 Q176,477 145.5,509 Q115,541 96.5,586 Q78,631 78,694 Q78,758 103,811.5 Q128,865 175,903 Q222,941 289.5,962 Q357,983 441,983 Q483,983 522.5,977 Q562,971 594,962 Q626,953 648,942.5 Q670,932 679.5,924.5 Q689,917 693,909.5 Q697,902 699,891.5 Q701,881 702.5,865.5 Q704,850 704,827 Q704,800 702.5,783 Q701,766 697.5,756 Q694,746 688,742.5 Q682,739 674,739 Q665,739 646,749.5 Q627,760 598.5,772 Q570,784 532.5,794.5 Q495,805 447,805 Q413,805 388,798 Q363,791 347,778 Q331,765 323,747.5 Q315,730 315,710 Q315,679 334,658 Q353,637 384,621 Q415,605 454.5,591 Q494,577 534.5,560.5 Q575,544 614.5,522 Q654,500 685,468 Q716,436 735,391.5 Q754,347 754,286"/> 
            <glyph glyph-name="t" unicode="&#x74;" horiz-adv-x="654" d=" M654,122 Q654,78 648.5,54.5 Q643,31 634,21.5 Q625,12 607.5,4.5 Q590,-3 566.5,-8.5 Q543,-14 515.5,-17 Q488,-20 460,-20 Q385,-20 330,-1 Q275,18 239,57.5 Q203,97 186,157 Q169,217 169,299 L169,756 L62,756 Q43,756 33,779.5 Q23,803 23,858 Q23,887 25.5,907 Q28,927 33,938.5 Q38,950 45.5,955 Q53,960 63,960 L169,960 L169,1159 Q169,1169 174.5,1177 Q180,1185 194.5,1190.5 Q209,1196 233.5,1198.5 Q258,1201 294,1201 Q331,1201 355.5,1198.5 Q380,1196 394,1190.5 Q408,1185 414,1177 Q420,1169 420,1159 L420,960 L614,960 Q624,960 631.5,955 Q639,950 644,938.5 Q649,927 651.5,907 Q654,887 654,858 Q654,803 644,779.5 Q634,756 615,756 L420,756 L420,337 Q420,264 443,227.5 Q466,191 525,191 Q545,191 561,194.5 Q577,198 589.5,202.5 Q602,207 610.5,210.5 Q619,214 626,214 Q632,214 637.5,210.5 Q643,207 646,196.5 Q649,186 651.5,168 Q654,150 654,122"/> 
            <glyph glyph-name="u" unicode="&#x75;" horiz-adv-x="972" d=" M972,34 Q972,24 967,16.5 Q962,9 949.5,4 Q937,-1 916.5,-3.5 Q896,-6 865,-6 Q832,-6 811.5,-3.5 Q791,-1 779,4 Q767,9 762,16.5 Q757,24 757,34 L757,137 Q683,57 606.5,17 Q530,-23 448,-23 Q356,-23 293.5,7 Q231,37 192.5,89 Q154,141 137.5,209.5 Q121,278 121,380 L121,926 Q121,936 126.5,943.5 Q132,951 146.5,956 Q161,961 185.5,963.5 Q210,966 246,966 Q283,966 307,963.5 Q331,961 345.5,956 Q360,951 366,943.5 Q372,936 372,926 L372,422 Q372,352 381,315 Q390,278 408.5,251.5 Q427,225 455.5,210.5 Q484,196 522,196 Q570,196 618.5,231 Q667,266 722,333 L722,926 Q722,936 727.5,943.5 Q733,951 747.5,956 Q762,961 786,963.5 Q810,966 847,966 Q884,966 908,963.5 Q932,961 946,956 Q960,951 966,943.5 Q972,936 972,926"/> 
            <glyph glyph-name="v" unicode="&#x76;" horiz-adv-x="947" d=" M947,927 Q947,922 946.5,915 Q946,908 944.5,899.5 Q943,891 940.5,880 Q938,869 934,855 L666,48 Q661,31 652.5,20.5 Q644,10 624.5,4 Q605,-2 571.5,-4 Q538,-6 484,-6 Q431,-6 397.5,-3.5 Q364,-1 345,5 Q326,11 317.5,21.5 Q309,32 304,48 L36,855 Q30,875 26.5,891 Q23,907 22.5,914 Q22,921 22,927 Q22,937 27.5,944.5 Q33,952 47,957 Q61,962 85.5,964 Q110,966 147,966 Q188,966 213,963.5 Q238,961 252.5,956.5 Q267,952 273,943.5 Q279,935 283,923 L486,268 L492,243 L498,268 L698,923 Q701,935 707.5,943.5 Q714,952 728,956.5 Q742,961 765.5,963.5 Q789,966 827,966 Q864,966 887.5,964 Q911,962 924,957 Q937,952 942,944.5 Q947,937 947,927"/> 
            <glyph glyph-name="w" unicode="&#x77;" horiz-adv-x="1491" d=" M1491,928 Q1491,917 1488,901 Q1485,885 1477,855 L1239,48 Q1234,31 1226,20.5 Q1218,10 1201.5,4 Q1185,-2 1154.5,-4 Q1124,-6 1075,-6 Q1026,-6 995,-3.5 Q964,-1 946.5,5 Q929,11 921,21.5 Q913,32 909,48 L759,590 L757,599 L755,590 L617,48 Q613,31 605.5,20.5 Q598,10 580,4 Q562,-2 531,-4 Q500,-6 451,-6 Q401,-6 370.5,-3.5 Q340,-1 322.5,5 Q305,11 297,21.5 Q289,32 285,48 L49,855 Q40,884 37.5,900.5 Q35,917 35,928 Q35,938 40.5,945.5 Q46,953 60.5,957.5 Q75,962 99.5,964 Q124,966 161,966 Q201,966 226,964 Q251,962 265,957 Q279,952 284.5,943.5 Q290,935 293,923 L470,268 L472,256 L474,268 L640,923 Q643,935 649.5,943.5 Q656,952 669,957 Q682,962 705.5,964 Q729,966 766,966 Q803,966 826,963.5 Q849,961 862.5,956.5 Q876,952 881.5,944.5 Q887,937 890,927 L1068,267 L1071,256 L1073,268 L1243,923 Q1245,935 1251,943.5 Q1257,952 1271,957 Q1285,962 1309,964 Q1333,966 1370,966 Q1407,966 1430.5,964 Q1454,962 1467.5,957.5 Q1481,953 1486,945.5 Q1491,938 1491,928"/> 
            <glyph glyph-name="x" unicode="&#x78;" horiz-adv-x="909" d=" M901,52 Q909,35 908.5,24 Q908,13 894,6 Q880,-1 851,-3.5 Q822,-6 774,-6 Q729,-6 701.5,-4.5 Q674,-3 658.5,1.5 Q643,6 635.5,12.5 Q628,19 624,29 L459,346 L294,29 Q290,19 283,12.5 Q276,6 261.5,1.5 Q247,-3 221,-4.5 Q195,-6 153,-6 Q109,-6 83,-3.5 Q57,-1 45,6 Q33,13 32.5,24 Q32,35 41,52 L288,491 L60,903 Q51,921 50.5,933.5 Q50,946 63,953 Q76,960 104.5,963 Q133,966 182,966 Q226,966 252.5,964.5 Q279,963 294,960 Q309,957 316,950.5 Q323,944 328,934 L487,636 L645,934 Q648,942 654,948 Q660,954 673,958 Q686,962 708.5,964 Q731,966 770,966 Q814,966 840.5,964 Q867,962 878.5,955 Q890,948 889.5,935.5 Q889,923 878,903 L656,498"/> 
            <glyph glyph-name="y" unicode="&#x79;" horiz-adv-x="948" d=" M643,0 L535,-316 Q526,-341 486,-352 Q446,-363 369,-363 Q329,-363 305,-359.5 Q281,-356 269,-348 Q257,-340 256,-328 Q255,-316 262,-299 L381,0 Q368,6 357.5,18.5 Q347,31 342,45 L35,865 Q22,900 22,918.5 Q22,937 34,947.5 Q46,958 74.5,962 Q103,966 150,966 Q193,966 218,964.5 Q243,963 257,957 Q271,951 278,938.5 Q285,926 292,903 L502,306 L505,306 L697,915 Q703,941 712.5,949.5 Q722,958 744,962 Q766,966 821,966 Q864,966 892.5,962 Q921,958 934.5,947 Q948,936 948,917.5 Q948,899 940,874"/> 
            <glyph glyph-name="z" unicode="&#x7A;" horiz-adv-x="750" d=" M750,103 Q750,74 747,53.5 Q744,33 739,21 Q734,9 726,4.5 Q718,0 708,0 L125,0 Q98,0 83.5,18 Q69,36 69,77 L69,123 Q69,141 70.5,155.5 Q72,170 76.5,183.5 Q81,197 88.5,211 Q96,225 108,242 L442,758 L126,758 Q107,758 95.5,782 Q84,806 84,859 Q84,888 86.5,907.5 Q89,927 94,938.5 Q99,950 107,955 Q115,960 126,960 L671,960 Q685,960 695,957 Q705,954 711.5,946 Q718,938 721.5,924 Q725,910 725,889 L725,840 Q725,820 723,804.5 Q721,789 717,775 Q713,761 705.5,747 Q698,733 688,717 L356,202 L708,202 Q717,202 725,198 Q733,194 738.5,183 Q744,172 747,152.5 Q750,133 750,103"/> 
            <glyph glyph-name="{" unicode="&#x7B;" horiz-adv-x="632" d=" M632,-238 Q632,-264 629.5,-280.5 Q627,-297 622,-307 Q617,-317 610,-322 Q603,-327 595,-329 Q572,-335 551,-337 Q530,-339 504,-339 Q425,-339 373,-314 Q321,-289 290,-241.5 Q259,-194 246.5,-122 Q234,-50 234,64 L234,236 Q234,299 226,336 Q218,373 201,401.5 Q184,430 157.5,449 Q131,468 93,474 Q83,476 76,481.5 Q69,487 64,497.5 Q59,508 56.5,526 Q54,544 54,570 Q54,597 56,615.5 Q58,634 62.5,645 Q67,656 73.5,660.5 Q80,665 90,667 Q160,677 197,735 Q234,793 234,906 L234,1035 Q234,1149 246.5,1220.5 Q259,1292 290.5,1340.5 Q322,1389 374,1413.5 Q426,1438 504,1438 Q530,1438 551,1435.5 Q572,1433 594,1428 Q603,1427 610,1422 Q617,1417 622,1407 Q627,1397 629.5,1379.5 Q632,1362 632,1337 Q632,1311 629,1294 Q626,1277 621,1266 Q616,1255 608,1250.5 Q600,1246 592,1246 L555,1245 Q530,1244 513.5,1235.5 Q497,1227 486.5,1205.5 Q476,1184 471.5,1147.5 Q467,1111 467,1034 L467,910 Q467,833 456,781 Q445,729 420.5,687 Q396,645 357,614.5 Q318,584 261,571 Q318,558 357,528 Q396,498 420.5,455.5 Q445,413 456,361 Q467,309 467,233 L467,65 Q467,-11 471.5,-47.5 Q476,-84 485.5,-105.5 Q495,-127 509.5,-136 Q524,-145 546,-146 L583,-146 Q597,-147 607,-151.5 Q617,-156 622.5,-166.5 Q628,-177 630,-194 Q632,-211 632,-238"/> 
            <glyph glyph-name="|" unicode="&#x7C;" horiz-adv-x="605" d=" M605,-323 Q605,-333 599.5,-341 Q594,-349 580,-354.5 Q566,-360 543.5,-362.5 Q521,-365 486,-365 Q452,-365 429.5,-362.5 Q407,-360 393,-354.5 Q379,-349 373.5,-341 Q368,-333 368,-323 L368,1403 Q368,1413 373.5,1421 Q379,1429 393,1434.5 Q407,1440 429.5,1443 Q452,1446 486,1446 Q521,1446 543.5,1443 Q566,1440 580,1434.5 Q594,1429 599.5,1421 Q605,1413 605,1403"/> 
            <glyph glyph-name="}" unicode="&#x7D;" horiz-adv-x="684" d=" M684,574 Q684,546 681.5,528 Q679,510 675,499 Q671,488 664,483 Q657,478 648,477 Q610,472 583,447.5 Q556,423 538.5,386.5 Q521,350 512.5,305 Q504,260 504,193 L504,64 Q504,-50 491.5,-121.5 Q479,-193 447.5,-241 Q416,-289 364,-314 Q312,-339 234,-339 Q209,-339 188,-336.5 Q167,-334 142,-329 Q134,-327 127.5,-322 Q121,-317 116,-307 Q111,-297 108,-280.5 Q105,-264 105,-238 Q105,-212 108,-195 Q111,-178 116.5,-167 Q122,-156 129.5,-151.5 Q137,-147 145,-146 L183,-146 Q208,-145 224.5,-136.5 Q241,-128 251.5,-106.5 Q262,-85 266.5,-48 Q271,-11 271,65 L271,190 Q271,266 282,325 Q293,384 317,434.5 Q341,485 380.5,522.5 Q420,560 477,573 Q420,586 380.5,609 Q341,632 317,666 Q293,700 282,745 Q271,790 271,867 L271,1034 Q271,1110 266.5,1146.5 Q262,1183 253,1205 Q244,1227 229,1235.5 Q214,1244 192,1245 L156,1246 Q141,1246 131,1250.5 Q121,1255 115,1265 Q109,1275 107,1292.5 Q105,1310 105,1337 Q105,1362 107.5,1379.5 Q110,1397 115.5,1407 Q121,1417 128,1422 Q135,1427 144,1428 Q167,1434 188,1436 Q209,1438 234,1438 Q313,1438 365,1413.5 Q417,1389 448,1341 Q479,1293 491.5,1221.5 Q504,1150 504,1035 L504,863 Q504,801 512,770.5 Q520,740 536.5,720 Q553,700 580,688 Q607,676 645,669 Q654,668 661.5,662.5 Q669,657 673.5,646 Q678,635 681,617.5 Q684,600 684,574"/> 
            <glyph glyph-name="~" unicode="&#x7E;" horiz-adv-x="967" d=" M966,1070 Q965,991 942,932 Q919,873 882,834.5 Q845,796 796.5,777 Q748,758 695,758 Q652,758 619,766 Q586,774 560,787.5 Q534,801 513.5,819 Q493,837 472.5,858 Q452,879 436,898 Q420,917 404.5,931 Q389,945 373,952.5 Q357,960 335,960 Q310,960 292,949.5 Q274,939 263,919.5 Q252,900 246.5,873.5 Q241,847 241,815 Q241,796 218.5,788 Q196,780 149,780 Q122,780 104,782.5 Q86,785 75.5,790.5 Q65,796 61,804 Q57,812 57,822 L57,849 Q57,929 77.5,989 Q98,1049 134.5,1088.5 Q171,1128 220.5,1147 Q270,1166 328,1166 Q371,1166 404,1158.5 Q437,1151 463.5,1137.5 Q490,1124 510.5,1106.5 Q531,1089 551,1068 Q571,1047 587,1028 Q603,1009 618,995 Q633,981 649.5,973 Q666,965 688,965 Q712,965 730,975.5 Q748,986 759.5,1005 Q771,1024 776.5,1051 Q782,1078 782,1113 Q782,1130 806,1137.5 Q830,1145 873,1145 Q901,1145 919,1142.5 Q937,1140 947.5,1134.5 Q958,1129 962.5,1121 Q967,1113 966,1102"/> 
            <glyph glyph-name="" unicode="&#x192;" horiz-adv-x="919" d=" M919,1247 Q919,1214 915.5,1193 Q912,1172 906.5,1159.5 Q901,1147 894.5,1142 Q888,1137 882,1137 Q875,1137 864,1140.5 Q853,1144 839,1148.5 Q825,1153 807,1156.5 Q789,1160 768,1160 Q732,1160 705.5,1151 Q679,1142 660.5,1122.5 Q642,1103 630.5,1072.5 Q619,1042 614,1000 L584,779 L795,779 Q804,779 811.5,774 Q819,769 824,757.5 Q829,746 831.5,726.5 Q834,707 834,678 Q834,623 824,599 Q814,575 795,575 L556,575 L434,-306 Q433,-317 425.5,-324.5 Q418,-332 402.5,-337.5 Q387,-343 361,-345.5 Q335,-348 298,-348 Q260,-348 235.5,-345 Q211,-342 197.5,-336.5 Q184,-331 179.5,-323 Q175,-315 176,-305 L297,575 L139,575 Q120,575 109.5,599 Q99,623 99,678 Q99,707 101.5,726.5 Q104,746 109.5,757.5 Q115,769 122.5,774 Q130,779 139,779 L326,779 L359,1027 Q372,1118 401.5,1183 Q431,1248 477.5,1289.5 Q524,1331 586,1351 Q648,1371 725,1371 Q756,1371 785,1367.5 Q814,1364 837.5,1358 Q861,1352 878,1345 Q895,1338 901,1332.5 Q907,1327 910,1321 Q913,1315 915,1305.5 Q917,1296 918,1282 Q919,1268 919,1247"/> 
            <glyph glyph-name="" unicode="&#x1FA;" horiz-adv-x="1219" d=" M1201,98 Q1213,62 1216,41 Q1219,20 1208,9.5 Q1197,-1 1169,-3.5 Q1141,-6 1092,-6 Q1041,-6 1012.5,-4.5 Q984,-3 969,1.5 Q954,6 948,14 Q942,22 938,35 L851,295 L365,295 L283,42 Q279,28 272.5,18.5 Q266,9 251.5,3.5 Q237,-2 210.5,-4 Q184,-6 141,-6 Q95,-6 69,-3 Q43,0 33,11.5 Q23,23 26,44 Q29,65 41,100 L440,1248 Q446,1265 454,1275.5 Q462,1286 479.5,1291.5 Q497,1297 528,1298.5 Q559,1300 610,1300 Q669,1300 704,1298.5 Q739,1297 758.5,1291.5 Q778,1286 786.5,1275 Q795,1264 801,1245 M607,1047 L606,1047 L423,497 L790,497 M608,1915 Q618,1925 628.5,1932 Q639,1939 653.5,1943 Q668,1947 688.5,1948.5 Q709,1950 739,1950 Q783,1950 808,1945.5 Q833,1941 844,1934 Q855,1927 853,1918.5 Q851,1910 842,1903 L637,1745 Q628,1737 619,1731.5 Q610,1726 597.5,1722.5 Q585,1719 568,1717 Q551,1715 524,1715 Q491,1715 471.5,1717.5 Q452,1720 444,1725.5 Q436,1731 438.5,1739.5 Q441,1748 453,1759 M836,1516 Q836,1475 820.5,1442.5 Q805,1410 775.5,1387 Q746,1364 703,1351.5 Q660,1339 605,1339 Q549,1339 506.5,1350.5 Q464,1362 435.5,1383.5 Q407,1405 392.5,1437 Q378,1469 378,1509 Q378,1550 393.5,1582.5 Q409,1615 438.5,1638 Q468,1661 511.5,1673 Q555,1685 611,1685 Q666,1685 708.5,1674 Q751,1663 779,1641 Q807,1619 821.5,1587.5 Q836,1556 836,1516 M690,1510 Q690,1527 685,1541 Q680,1555 669.5,1565 Q659,1575 643,1581 Q627,1587 605,1587 Q565,1587 545,1567.5 Q525,1548 525,1514 Q525,1496 529.5,1482 Q534,1468 544,1458 Q554,1448 570,1442.5 Q586,1437 609,1437 Q629,1437 644,1442 Q659,1447 669,1457 Q679,1467 684.5,1480.5 Q690,1494 690,1510 M282,1294"/> 
            <glyph glyph-name="" unicode="&#x1FB;" horiz-adv-x="886" d=" M886,31 Q886,17 876,9 Q866,1 844.5,-2.5 Q823,-6 781,-6 Q736,-6 715.5,-2.5 Q695,1 686.5,9 Q678,17 678,31 L678,102 Q623,43 552.5,10 Q482,-23 396,-23 Q325,-23 265.5,-4.5 Q206,14 162.5,50.5 Q119,87 95,141 Q71,195 71,267 Q71,345 101.5,402.5 Q132,460 192.5,497.5 Q253,535 343,553 Q433,571 552,571 L639,571 L639,625 Q639,667 630.5,698.5 Q622,730 602.5,751 Q583,772 550.5,782 Q518,792 470,792 Q407,792 357.5,778 Q308,764 270,747 Q232,730 206.5,716 Q181,702 165,702 Q154,702 145.5,709 Q137,716 131.5,729 Q126,742 123,761 Q120,780 120,803 Q120,834 125,852 Q130,870 144,884.5 Q158,899 193,916.5 Q228,934 275,949 Q322,964 377.5,973.5 Q433,983 492,983 Q597,983 671.5,962.5 Q746,942 794,899.5 Q842,857 864,790 Q886,723 886,631 M639,413 L543,413 Q482,413 439,404 Q396,395 369,377 Q342,359 329.5,333.5 Q317,308 317,275 Q317,219 352.5,187 Q388,155 451,155 Q504,155 548.5,182 Q593,209 639,261 M719,1222 Q719,1182 704,1150 Q689,1118 660,1096 Q631,1074 589.5,1062 Q548,1050 495,1050 Q439,1050 398,1061 Q357,1072 329.5,1093 Q302,1114 288,1145 Q274,1176 274,1215 Q274,1255 289,1286.5 Q304,1318 333,1340 Q362,1362 404,1374 Q446,1386 500,1386 Q554,1386 595,1375 Q636,1364 663.5,1343 Q691,1322 705,1291.5 Q719,1261 719,1222 M576,1216 Q576,1232 571.5,1246 Q567,1260 557,1270 Q547,1280 531.5,1285.5 Q516,1291 495,1291 Q456,1291 436.5,1272 Q417,1253 417,1220 Q417,1186 435.5,1166 Q454,1146 498,1146 Q538,1146 557,1165.5 Q576,1185 576,1216 M545,1628 Q555,1638 564.5,1645 Q574,1652 588,1656 Q602,1660 621,1661.5 Q640,1663 669,1663 Q711,1663 735,1658.5 Q759,1654 769,1647.5 Q779,1641 777.5,1632.5 Q776,1624 766,1617 L581,1470 Q571,1462 562,1456 Q553,1450 541,1446.5 Q529,1443 512,1441 Q495,1439 470,1439 Q437,1439 419,1441.5 Q401,1444 393.5,1449.5 Q386,1455 389,1463 Q392,1471 402,1483 M178,960"/> 
            <glyph glyph-name="" unicode="&#x1FC;" horiz-adv-x="1494" d=" M1494,103 Q1494,74 1491.5,54.5 Q1489,35 1484,23 Q1479,11 1472,5.5 Q1465,0 1456,0 L807,0 Q774,0 752,19.5 Q730,39 730,83 L730,281 L340,281 L222,41 Q216,27 208,17.5 Q200,8 184,3 Q168,-2 141,-4 Q114,-6 69,-6 Q37,-6 15,-5 Q-7,-4 -20.5,0 Q-34,4 -39.5,11 Q-45,18 -45,29 Q-45,40 -39.5,56.5 Q-34,73 -21,100 L549,1240 Q557,1258 566.5,1268.5 Q576,1279 594.5,1285 Q613,1291 644,1292.5 Q675,1294 726,1294 L1451,1294 Q1460,1294 1467.5,1289 Q1475,1284 1480,1271.5 Q1485,1259 1487.5,1239.5 Q1490,1220 1490,1190 Q1490,1162 1487.5,1142.5 Q1485,1123 1480,1111 Q1475,1099 1467.5,1093.5 Q1460,1088 1451,1088 L990,1088 L990,771 L1380,771 Q1390,771 1397.5,766 Q1405,761 1410,749 Q1415,737 1417.5,717.5 Q1420,698 1420,670 Q1420,641 1417.5,621.5 Q1415,602 1410,590 Q1405,578 1397.5,573 Q1390,568 1380,568 L990,568 L990,206 L1456,206 Q1465,206 1472,200.5 Q1479,195 1484,183 Q1489,171 1491.5,151.5 Q1494,132 1494,103 M730,1088 L725,1088 L421,482 L730,482 M955,1643 Q968,1658 980.5,1667 Q993,1676 1010.5,1681 Q1028,1686 1053,1687.5 Q1078,1689 1115,1689 Q1161,1689 1186.5,1683 Q1212,1677 1221.5,1667.5 Q1231,1658 1226,1646 Q1221,1634 1207,1621 L985,1421 Q975,1412 964.5,1405.5 Q954,1399 939,1394.5 Q924,1390 903,1388 Q882,1386 851,1386 Q817,1386 796.5,1389 Q776,1392 767.5,1398.5 Q759,1405 761,1415 Q763,1425 775,1439 M658,1294"/> 
            <glyph glyph-name="" unicode="&#x1FD;" horiz-adv-x="1506" d=" M1506,506 Q1506,460 1485.5,438 Q1465,416 1429,416 L886,416 Q886,359 899.5,312.5 Q913,266 943,233.5 Q973,201 1020.5,184 Q1068,167 1135,167 Q1199,167 1248,176.5 Q1297,186 1333,197.5 Q1369,209 1393.5,218.5 Q1418,228 1432,228 Q1441,228 1447,224.5 Q1453,221 1457,212 Q1461,203 1463,186.5 Q1465,170 1465,145 Q1465,123 1464,107.5 Q1463,92 1460.5,81 Q1458,70 1454.5,62.5 Q1451,55 1444,48 Q1437,41 1408,29 Q1379,17 1334.5,5.5 Q1290,-6 1232.5,-14.5 Q1175,-23 1111,-23 Q1038,-23 979.5,-12.5 Q921,-2 875.5,18.5 Q830,39 795.5,68 Q761,97 735,134 Q702,93 663,64 Q624,35 581,15 Q538,-5 491.5,-14 Q445,-23 396,-23 Q325,-23 265.5,-4.5 Q206,14 162.5,50.5 Q119,87 95,141 Q71,195 71,266 Q71,345 101.5,402.5 Q132,460 192.5,497.5 Q253,535 343,553 Q433,571 552,571 L639,571 L639,625 Q639,667 630.5,698.5 Q622,730 602.5,751 Q583,772 550.5,782 Q518,792 470,792 Q407,792 357.5,778 Q308,764 270,747 Q232,730 205.5,716 Q179,702 164,702 Q153,702 144.5,709 Q136,716 131,729 Q126,742 123,761 Q120,780 120,803 Q120,834 125,852 Q130,870 144,884.5 Q158,899 193,916.5 Q228,934 275,949 Q322,964 377.5,973.5 Q433,983 492,983 Q551,983 598.5,975 Q646,967 683.5,951 Q721,935 749,911.5 Q777,888 797,859 Q845,919 921.5,951 Q998,983 1096,983 Q1203,983 1280,950 Q1357,917 1407.5,858 Q1458,799 1482,719 Q1506,639 1506,545 M1263,578 Q1264,631 1253,673 Q1242,715 1219.5,744 Q1197,773 1162,789 Q1127,805 1080,805 Q1031,805 995.5,787 Q960,769 936.5,738.5 Q913,708 900.5,666.5 Q888,625 886,578 M655,279 Q645,306 641,343 Q637,380 637,413 L543,413 Q482,413 439,404 Q396,395 369,377 Q342,359 329.5,333.5 Q317,308 317,275 Q317,219 352.5,187 Q388,155 451,155 Q504,155 553,185 Q602,215 655,279 M851,1364 Q858,1375 868,1383 Q878,1391 893,1395.5 Q908,1400 931,1402 Q954,1404 987,1404 Q1033,1404 1059.5,1400 Q1086,1396 1097.5,1388.5 Q1109,1381 1108,1371 Q1107,1361 1098,1350 L904,1118 Q896,1108 888,1101.5 Q880,1095 867.5,1091 Q855,1087 836,1085 Q817,1083 788,1083 Q753,1083 732.5,1086 Q712,1089 704,1095.5 Q696,1102 697.5,1112 Q699,1122 708,1135 M595,960"/> 
            <glyph glyph-name="" unicode="&#x1FE;" horiz-adv-x="1314" d=" M1314,662 Q1314,501 1273.5,374 Q1233,247 1153.5,158.5 Q1074,70 956.5,23.5 Q839,-23 685,-23 Q632,-23 583.5,-16.5 Q535,-10 496,2 L401,-192 Q397,-200 389,-206 Q381,-212 367.5,-215.5 Q354,-219 334,-221 Q314,-223 286,-223 Q250,-223 227.5,-219 Q205,-215 194.5,-207.5 Q184,-200 183,-190 Q182,-180 188,-167 L306,74 Q251,112 208.5,165 Q166,218 137.5,287.5 Q109,357 94.5,444.5 Q80,532 80,639 Q80,796 120,921.5 Q160,1047 239.5,1135 Q319,1223 436.5,1270 Q554,1317 709,1317 Q761,1317 806.5,1310.5 Q852,1304 899,1291 L990,1479 Q994,1487 1002,1492.5 Q1010,1498 1023.5,1502 Q1037,1506 1057.5,1508 Q1078,1510 1106,1510 Q1142,1510 1164,1506 Q1186,1502 1197,1494.5 Q1208,1487 1208.5,1477 Q1209,1467 1203,1454 L1088,1218 Q1143,1179 1185.5,1125.5 Q1228,1072 1256.5,1003 Q1285,934 1299.5,849 Q1314,764 1314,662 M1048,654 Q1048,754 1028,835 Q1008,916 965,977 L588,207 Q612,198 638,193 Q664,188 697,188 Q797,188 864,223.5 Q931,259 972,322 Q1013,385 1030.5,470 Q1048,555 1048,654 M808,1088 Q784,1098 757.5,1103 Q731,1108 697,1108 Q596,1108 529,1071.5 Q462,1035 421.5,972.5 Q381,910 364,827 Q347,744 347,651 Q347,547 366,462 Q385,377 429,317 M656,1643 Q669,1658 681.5,1667 Q694,1676 711.5,1681 Q729,1686 754,1687.5 Q779,1689 816,1689 Q862,1689 887.5,1683 Q913,1677 922.5,1667.5 Q932,1658 927,1646 Q922,1634 908,1621 L686,1421 Q676,1412 665.5,1405.5 Q655,1399 640,1394.5 Q625,1390 604,1388 Q583,1386 552,1386 Q518,1386 497.5,1389 Q477,1392 468.5,1398.5 Q460,1405 462,1415 Q464,1425 476,1439 M359,1294"/> 
            <glyph glyph-name="" unicode="&#x1FF;" horiz-adv-x="1042" d=" M1042,489 Q1042,375 1011,281 Q980,187 918,119 Q856,51 763,14 Q670,-23 546,-23 Q508,-23 476.5,-19 Q445,-15 418,-8 L352,-146 Q345,-162 321,-168.5 Q297,-175 253,-175 Q193,-175 175,-163.5 Q157,-152 169,-128 L254,50 Q207,80 172.5,123.5 Q138,167 115.5,221 Q93,275 82.5,338.5 Q72,402 72,471 Q72,586 102.5,680 Q133,774 195,841.5 Q257,909 350,946 Q443,983 568,983 Q601,983 633,979.5 Q665,976 695,969 L758,1101 Q766,1116 788.5,1123 Q811,1130 856,1130 Q916,1130 934.5,1119 Q953,1108 941,1083 L859,911 Q906,881 940.5,838 Q975,795 997.5,741 Q1020,687 1031,623.5 Q1042,560 1042,489 M804,486 Q804,514 801,542 Q798,570 791.5,597 Q785,624 774,647 Q763,670 747,689 L499,170 Q512,165 529.5,162.5 Q547,160 563,160 Q623,160 668.5,181.5 Q714,203 744,244.5 Q774,286 789,346.5 Q804,407 804,486 M616,792 Q603,796 585.5,798.5 Q568,801 550,801 Q490,801 445,779 Q400,757 370,716 Q340,675 325,614 Q310,553 310,476 Q310,417 322.5,362.5 Q335,308 367,271 M525,1364 Q532,1375 542,1383 Q552,1391 567,1395.5 Q582,1400 605,1402 Q628,1404 661,1404 Q707,1404 733.5,1400 Q760,1396 771.5,1388.5 Q783,1381 782,1371 Q781,1361 772,1350 L578,1118 Q570,1108 562,1101.5 Q554,1095 541.5,1091 Q529,1087 510,1085 Q491,1083 462,1083 Q427,1083 406.5,1086 Q386,1089 378,1095.5 Q370,1102 371.5,1112 Q373,1122 382,1135 M269,960"/> 
            <glyph glyph-name="" unicode="&#x2C6;" horiz-adv-x="722" d=" M307,1118 Q300,1107 293,1100 Q286,1093 274,1089.5 Q262,1086 243.5,1084.5 Q225,1083 195,1083 Q155,1083 133.5,1086.5 Q112,1090 105,1097.5 Q98,1105 103.5,1118 Q109,1131 123,1149 L281,1372 Q287,1382 296.5,1387.5 Q306,1393 321.5,1397 Q337,1401 359,1402.5 Q381,1404 412,1404 Q444,1404 465.5,1402 Q487,1400 501.5,1396 Q516,1392 525,1386 Q534,1380 541,1372 L698,1149 Q712,1130 717,1117.5 Q722,1105 715,1097.5 Q708,1090 686.5,1086.5 Q665,1083 626,1083 Q594,1083 575.5,1084.5 Q557,1086 545.5,1090 Q534,1094 528,1100.5 Q522,1107 515,1118 L411,1268 M0,960"/> 
            <glyph glyph-name="" unicode="&#x2C7;" horiz-adv-x="723" d=" M515,1370 Q522,1380 529,1387 Q536,1394 548,1397.5 Q560,1401 578.5,1402.5 Q597,1404 627,1404 Q667,1404 688,1401 Q709,1398 716,1390 Q723,1382 718,1369.5 Q713,1357 699,1338 L542,1115 Q535,1106 525,1099.5 Q515,1093 500,1089.5 Q485,1086 463,1084.5 Q441,1083 410,1083 Q379,1083 357,1085 Q335,1087 320.5,1091 Q306,1095 296.5,1101 Q287,1107 282,1115 L123,1338 Q110,1357 105,1369.5 Q100,1382 107,1390 Q114,1398 135.5,1401 Q157,1404 196,1404 Q228,1404 246.5,1402.5 Q265,1401 276.5,1397 Q288,1393 294,1386.5 Q300,1380 307,1370 L410,1219 M0,960"/> 
            <glyph glyph-name="" unicode="&#x2C9;" horiz-adv-x="697" d=" M656,1323 Q667,1323 675,1318.5 Q683,1314 687.5,1303 Q692,1292 694.5,1274.5 Q697,1257 697,1231 Q697,1205 694.5,1188 Q692,1171 687.5,1160 Q683,1149 675,1144.5 Q667,1140 656,1140 L146,1140 Q134,1140 125.5,1144.5 Q117,1149 112,1160 Q107,1171 104.5,1188 Q102,1205 102,1231 Q102,1256 104.5,1274 Q107,1292 112,1302.5 Q117,1313 125.5,1318 Q134,1323 146,1323 M0,960"/> 
            <glyph glyph-name="" unicode="&#x2D8;" horiz-adv-x="685" d=" M518,1361 Q520,1380 537.5,1390 Q555,1400 599,1400 Q625,1400 642,1398 Q659,1396 668.5,1392 Q678,1388 681.5,1381 Q685,1374 685,1365 Q685,1298 667.5,1246 Q650,1194 614.5,1158.5 Q579,1123 523.5,1104.5 Q468,1086 393,1086 Q315,1086 260,1104.5 Q205,1123 170,1158.5 Q135,1194 118.5,1245.5 Q102,1297 102,1363 Q102,1383 119,1391.5 Q136,1400 184,1400 Q209,1400 225.5,1398 Q242,1396 252,1391 Q262,1386 266,1378.5 Q270,1371 271,1361 Q274,1334 281,1312.5 Q288,1291 302.5,1275.5 Q317,1260 339,1252 Q361,1244 393,1244 Q422,1244 444,1251 Q466,1258 482,1272.5 Q498,1287 507,1308.5 Q516,1330 518,1361 M0,960"/> 
            <glyph glyph-name="" unicode="&#x2D9;" horiz-adv-x="379" d=" M379,1235 Q379,1164 349.5,1135.5 Q320,1107 240,1107 Q160,1107 131,1134.5 Q102,1162 102,1230 Q102,1301 132,1329.5 Q162,1358 242,1358 Q322,1358 350.5,1330.5 Q379,1303 379,1235 M0,960"/> 
            <glyph glyph-name="" unicode="&#x2DA;" horiz-adv-x="569" d=" M569,1266 Q569,1219 553,1182 Q537,1145 506.5,1119.5 Q476,1094 432,1080.5 Q388,1067 331,1067 Q273,1067 230,1080 Q187,1093 158.5,1117.5 Q130,1142 116,1177.5 Q102,1213 102,1259 Q102,1306 117.5,1343 Q133,1380 163.5,1405.5 Q194,1431 238,1444 Q282,1457 339,1457 Q452,1457 510.5,1408 Q569,1359 569,1266 M419,1261 Q419,1300 398.5,1323.5 Q378,1347 333,1347 Q293,1347 272.5,1325 Q252,1303 252,1264 Q252,1223 271.5,1200 Q291,1177 337,1177 Q378,1177 398.5,1199.5 Q419,1222 419,1261 M0,960"/> 
            <glyph glyph-name="" unicode="&#x2DB;" horiz-adv-x="544" d=" M471,0 L387,-84 Q362,-109 353,-126 Q344,-143 344,-159 Q344,-180 360,-190 Q376,-200 406,-200 L508,-200 Q518,-200 525,-202.5 Q532,-205 536,-211.5 Q540,-218 542,-230 Q544,-242 544,-260 Q544,-281 542,-295 Q540,-309 535.5,-318 Q531,-327 523.5,-332 Q516,-337 506,-340 Q469,-353 428,-359 Q387,-365 339,-365 Q289,-365 246,-355 Q203,-345 171,-324 Q139,-303 120.5,-271 Q102,-239 102,-196 Q102,-177 105.5,-159 Q109,-141 117.5,-122.5 Q126,-104 140.5,-84.5 Q155,-65 178,-43 L220,0"/> 
            <glyph glyph-name="" unicode="&#x2DC;" horiz-adv-x="810" d=" M810,1336 Q810,1215 752.5,1150.5 Q695,1086 593,1086 Q554,1086 524,1094 Q494,1102 470,1115 Q446,1128 426.5,1142.5 Q407,1157 389,1169.5 Q371,1182 353.5,1190.5 Q336,1199 316,1199 Q283,1199 269,1175.5 Q255,1152 255,1114 Q255,1105 251.5,1099.5 Q248,1094 239.5,1091 Q231,1088 215.5,1087 Q200,1086 176,1086 Q155,1086 140.5,1087.5 Q126,1089 117.5,1093.5 Q109,1098 105,1106 Q101,1114 101,1127 Q101,1243 157,1309.5 Q213,1376 317,1376 Q374,1376 413.5,1358.5 Q453,1341 483.5,1319.5 Q514,1298 540,1280.5 Q566,1263 594,1263 Q624,1263 640,1284.5 Q656,1306 656,1348 Q656,1365 671,1370.5 Q686,1376 732,1376 Q777,1376 793.5,1368.5 Q810,1361 810,1336 M0,960"/> 
            <glyph glyph-name="" unicode="&#x2DD;" horiz-adv-x="895" d=" M285,1093 Q278,1085 270.5,1080 Q263,1075 252.5,1072.5 Q242,1070 227,1069 Q212,1068 191,1068 Q160,1068 140.5,1070 Q121,1072 111.5,1077 Q102,1082 102,1090 Q102,1098 109,1110 L260,1353 Q267,1364 276,1372 Q285,1380 299,1384.5 Q313,1389 333.5,1391.5 Q354,1394 385,1394 Q432,1394 460.5,1390 Q489,1386 501,1378 Q513,1370 510,1358.5 Q507,1347 492,1330 M657,1094 Q649,1085 640,1080 Q631,1075 619,1072.5 Q607,1070 591.5,1069 Q576,1068 553,1068 Q494,1068 473.5,1076 Q453,1084 469,1107 L649,1361 Q656,1371 665,1377 Q674,1383 689,1387 Q704,1391 727.5,1392.5 Q751,1394 789,1394 Q829,1394 852.5,1389 Q876,1384 885.5,1375.5 Q895,1367 892,1355.5 Q889,1344 876,1331 M0,960"/> 
            <glyph glyph-name="" unicode="&#x300;" horiz-adv-x="-255" d=" M65268,1135 Q65277,1122 65279,1112 Q65281,1102 65272.5,1095.5 Q65264,1089 65244.5,1086 Q65225,1083 65190,1083 Q65161,1083 65142,1085 Q65123,1087 65110,1091 Q65097,1095 65088.5,1101.5 Q65080,1108 65072,1118 L64879,1350 Q64869,1361 64868,1371 Q64867,1381 64878.5,1388.5 Q64890,1396 64917,1400 Q64944,1404 64990,1404 Q65023,1404 65045.5,1402 Q65068,1400 65083,1395.5 Q65098,1391 65107.5,1383 Q65117,1375 65125,1364 M64766,960"/> 
            <glyph glyph-name="" unicode="&#x301;" horiz-adv-x="-256" d=" M65022,1364 Q65029,1375 65039,1383 Q65049,1391 65064,1395.5 Q65079,1400 65102,1402 Q65125,1404 65158,1404 Q65204,1404 65230.5,1400 Q65257,1396 65268.5,1388.5 Q65280,1381 65279,1371 Q65278,1361 65269,1350 L65075,1118 Q65067,1108 65059,1101.5 Q65051,1095 65038.5,1091 Q65026,1087 65007,1085 Q64988,1083 64959,1083 Q64924,1083 64903.5,1086 Q64883,1089 64875,1095.5 Q64867,1102 64868.5,1112 Q64870,1122 64879,1135 M64766,960"/> 
            <glyph glyph-name="" unicode="&#x302;" horiz-adv-x="-150" d=" M64971,1118 Q64964,1107 64957,1100 Q64950,1093 64938,1089.5 Q64926,1086 64907.5,1084.5 Q64889,1083 64859,1083 Q64819,1083 64797.5,1086.5 Q64776,1090 64769,1097.5 Q64762,1105 64767.5,1118 Q64773,1131 64787,1149 L64945,1372 Q64951,1382 64960.5,1387.5 Q64970,1393 64985.5,1397 Q65001,1401 65023,1402.5 Q65045,1404 65076,1404 Q65108,1404 65129.5,1402 Q65151,1400 65165.5,1396 Q65180,1392 65189,1386 Q65198,1380 65205,1372 L65362,1149 Q65376,1130 65381,1117.5 Q65386,1105 65379,1097.5 Q65372,1090 65350.5,1086.5 Q65329,1083 65290,1083 Q65258,1083 65239.5,1084.5 Q65221,1086 65209.5,1090 Q65198,1094 65192,1100.5 Q65186,1107 65179,1118 L65075,1268 M64664,960"/> 
            <glyph glyph-name="" unicode="&#x303;" horiz-adv-x="-107" d=" M65429,1336 Q65429,1215 65371.5,1150.5 Q65314,1086 65212,1086 Q65173,1086 65143,1094 Q65113,1102 65089,1115 Q65065,1128 65045.5,1142.5 Q65026,1157 65008,1169.5 Q64990,1182 64972.5,1190.5 Q64955,1199 64935,1199 Q64902,1199 64888,1175.5 Q64874,1152 64874,1114 Q64874,1105 64870.5,1099.5 Q64867,1094 64858.5,1091 Q64850,1088 64834.5,1087 Q64819,1086 64795,1086 Q64774,1086 64759.5,1087.5 Q64745,1089 64736.5,1093.5 Q64728,1098 64724,1106 Q64720,1114 64720,1127 Q64720,1243 64776,1309.5 Q64832,1376 64936,1376 Q64993,1376 65032.5,1358.5 Q65072,1341 65102.5,1319.5 Q65133,1298 65159,1280.5 Q65185,1263 65213,1263 Q65243,1263 65259,1284.5 Q65275,1306 65275,1348 Q65275,1365 65290,1370.5 Q65305,1376 65351,1376 Q65396,1376 65412.5,1368.5 Q65429,1361 65429,1336 M64619,960"/> 
            <glyph glyph-name="" unicode="&#x304;" horiz-adv-x="-166" d=" M65329,1323 Q65340,1323 65348,1318.5 Q65356,1314 65360.5,1303 Q65365,1292 65367.5,1274.5 Q65370,1257 65370,1231 Q65370,1205 65367.5,1188 Q65365,1171 65360.5,1160 Q65356,1149 65348,1144.5 Q65340,1140 65329,1140 L64819,1140 Q64807,1140 64798.5,1144.5 Q64790,1149 64785,1160 Q64780,1171 64777.5,1188 Q64775,1205 64775,1231 Q64775,1256 64777.5,1274 Q64780,1292 64785,1302.5 Q64790,1313 64798.5,1318 Q64807,1323 64819,1323 M64673,960"/> 
            <glyph glyph-name="" unicode="&#x306;" horiz-adv-x="-171" d=" M65198,1361 Q65200,1380 65217.5,1390 Q65235,1400 65279,1400 Q65305,1400 65322,1398 Q65339,1396 65348.5,1392 Q65358,1388 65361.5,1381 Q65365,1374 65365,1365 Q65365,1298 65347.5,1246 Q65330,1194 65294.5,1158.5 Q65259,1123 65203.5,1104.5 Q65148,1086 65073,1086 Q64995,1086 64940,1104.5 Q64885,1123 64850,1158.5 Q64815,1194 64798.5,1245.5 Q64782,1297 64782,1363 Q64782,1383 64799,1391.5 Q64816,1400 64864,1400 Q64889,1400 64905.5,1398 Q64922,1396 64932,1391 Q64942,1386 64946,1378.5 Q64950,1371 64951,1361 Q64954,1334 64961,1312.5 Q64968,1291 64982.5,1275.5 Q64997,1260 65019,1252 Q65041,1244 65073,1244 Q65102,1244 65124,1251 Q65146,1258 65162,1272.5 Q65178,1287 65187,1308.5 Q65196,1330 65198,1361 M64680,960"/> 
            <glyph glyph-name="" unicode="&#x307;" horiz-adv-x="-322" d=" M65214,1235 Q65214,1164 65184.5,1135.5 Q65155,1107 65075,1107 Q64995,1107 64966,1134.5 Q64937,1162 64937,1230 Q64937,1301 64967,1329.5 Q64997,1358 65077,1358 Q65157,1358 65185.5,1330.5 Q65214,1303 65214,1235 M64835,960"/> 
            <glyph glyph-name="" unicode="&#x308;" horiz-adv-x="-140" d=" M65005,1227 Q65005,1157 64978.5,1129.5 Q64952,1102 64878,1102 Q64803,1102 64777,1128.5 Q64751,1155 64751,1222 Q64751,1294 64778,1321 Q64805,1348 64878,1348 Q64954,1348 64979.5,1321.5 Q65005,1295 65005,1227 M65396,1227 Q65396,1157 65369.5,1129.5 Q65343,1102 65268,1102 Q65194,1102 65168,1128.5 Q65142,1155 65142,1222 Q65142,1294 65168.5,1321 Q65195,1348 65269,1348 Q65344,1348 65370,1321.5 Q65396,1295 65396,1227 M64649,960"/> 
            <glyph glyph-name="" unicode="&#x30A;" horiz-adv-x="-229" d=" M65307,1266 Q65307,1219 65291,1182 Q65275,1145 65244.5,1119.5 Q65214,1094 65170,1080.5 Q65126,1067 65069,1067 Q65011,1067 64968,1080 Q64925,1093 64896.5,1117.5 Q64868,1142 64854,1177.5 Q64840,1213 64840,1259 Q64840,1306 64855.5,1343 Q64871,1380 64901.5,1405.5 Q64932,1431 64976,1444 Q65020,1457 65077,1457 Q65190,1457 65248.5,1408 Q65307,1359 65307,1266 M65157,1261 Q65157,1300 65136.5,1323.5 Q65116,1347 65071,1347 Q65031,1347 65010.5,1325 Q64990,1303 64990,1264 Q64990,1223 65009.5,1200 Q65029,1177 65075,1177 Q65116,1177 65136.5,1199.5 Q65157,1222 65157,1261 M64738,960"/> 
            <glyph glyph-name="" unicode="&#x30B;" horiz-adv-x="-65" d=" M64861,1093 Q64854,1085 64846.5,1080 Q64839,1075 64828.5,1072.5 Q64818,1070 64803,1069 Q64788,1068 64767,1068 Q64736,1068 64716.5,1070 Q64697,1072 64687.5,1077 Q64678,1082 64678,1090 Q64678,1098 64685,1110 L64836,1353 Q64843,1364 64852,1372 Q64861,1380 64875,1384.5 Q64889,1389 64909.5,1391.5 Q64930,1394 64961,1394 Q65008,1394 65036.5,1390 Q65065,1386 65077,1378 Q65089,1370 65086,1358.5 Q65083,1347 65068,1330 M65233,1094 Q65225,1085 65216,1080 Q65207,1075 65195,1072.5 Q65183,1070 65167.5,1069 Q65152,1068 65129,1068 Q65070,1068 65049.5,1076 Q65029,1084 65045,1107 L65225,1361 Q65232,1371 65241,1377 Q65250,1383 65265,1387 Q65280,1391 65303.5,1392.5 Q65327,1394 65365,1394 Q65405,1394 65428.5,1389 Q65452,1384 65461.5,1375.5 Q65471,1367 65468,1355.5 Q65465,1344 65452,1331 M64576,960"/> 
            </font>
</defs>
</svg>
